<?xml version="1.0" encoding="UTF-8"?><svg id="Layer_1" xmlns="http://www.w3.org/2000/svg" viewBox="0 0 256 256"><defs><style>.cls-1{fill:#294159;}.cls-2{fill:#f4a948;}.cls-3{fill:#e0622d;}.cls-4{fill:#fff;}.cls-5{fill:#eb9922;}.cls-6{opacity:.27;}.cls-6,.cls-7,.cls-8,.cls-9,.cls-10,.cls-11,.cls-12,.cls-13,.cls-14,.cls-15,.cls-16,.cls-17{fill:#ea7560;}.cls-18{fill:#ad9684;}.cls-19{fill:#b8b5b3;}.cls-20{fill:#f47e45;}.cls-21{fill:#d87c60;}.cls-22{fill:#263951;}.cls-23{opacity:.9;}.cls-24{fill:#010101;opacity:.2;}.cls-25{fill:#56372f;}.cls-8{opacity:.18;}.cls-26{fill:#eac9b3;}.cls-9{opacity:.73;}.cls-10{opacity:0;}.cls-27{fill:#d4b8a2;}.cls-28{fill:#b65835;}.cls-11{opacity:.45;}.cls-29{fill:#a04a2f;}.cls-30{fill:#a96644;}.cls-31{fill:#b8b4b1;}.cls-32{fill:#cb9169;}.cls-33{fill:#bc7768;}.cls-12{opacity:.82;}.cls-34{fill:#511f15;}.cls-35{fill:#9c5c46;}.cls-36{fill:#172635;}.cls-37{fill:#cc715a;}.cls-38{fill:#c2c4c5;}.cls-39{fill:#6b381b;}.cls-40{fill:#eaeaea;}.cls-41{fill:#3e5980;}.cls-42{fill:#fcb12e;}.cls-43{fill:#cfaa7d;}.cls-44{fill:#f4aa84;}.cls-13{opacity:.09;}.cls-45{fill:#f1f3f2;}.cls-46{fill:#efeeed;}.cls-47{fill:#9a9795;}.cls-48{fill:#fdbd60;}.cls-49{fill:#496688;}.cls-50{fill:#974e3c;}.cls-51{fill:#324a69;}.cls-14{opacity:.91;}.cls-52{fill:#ea9d3e;}.cls-15{opacity:.64;}.cls-53{fill:#5a4e42;}.cls-54{fill:#9d8a79;}.cls-55{fill:#c77055;}.cls-56{fill:#8d7b6c;}.cls-57{fill:#dc8c2a;}.cls-58{fill:#ecab52;}.cls-59{fill:#fee4d0;}.cls-60{fill:#d88d6c;}.cls-61{fill:#354767;}.cls-62{fill:#8f5a31;}.cls-63{fill:#814133;}.cls-16{opacity:.55;}.cls-64{fill:#69372b;}.cls-65{fill:#cd3127;}.cls-17{opacity:.36;}.cls-66{fill:#8a4d32;}</style></defs><rect class="cls-4" y="52.46" width="256" height="166.63"/><g><path class="cls-24" d="M28.12,197.22c0,2.12,46.04,3.93,102.85,4.06,56.81,.13,102.86-1.49,102.87-3.61,0-2.12-46.04-3.93-102.85-4.06-56.81-.13-102.86,1.49-102.87,3.61Z"/><g><g><g><path class="cls-50" d="M121.54,196.18h7.92s.47-2.28-1.19-5.22l-5.34,.1s-1.54,2.33-1.4,5.12Z"/><rect class="cls-32" x="121.61" y="196.18" width="7.92" height="1.32"/><path class="cls-33" d="M128.48,193.74c0,.57-1.34,1.04-2.99,1.04s-2.99-.46-2.99-1.04,1.34-1.04,2.99-1.04,2.99,.46,2.99,1.04Z"/></g><path class="cls-43" d="M127.03,192.36c0,.16-.12,.29-.28,.29h-2.36c-.15,0-.28-.13-.28-.29h0c0-.16,.12-.29,.28-.29h2.36c.15,0,.28,.13,.28,.29h0Z"/><path class="cls-43" d="M127.03,191.33c0,.16-.12,.29-.28,.29h-2.36c-.15,0-.28-.13-.28-.29h0c0-.16,.12-.29,.28-.29h2.36c.15,0,.28,.13,.28,.29h0Z"/></g><g><g><path class="cls-50" d="M111.28,190.3s.61,3.38,.15,5.73h-14.91s-.51-3.47,5.97-3.46l4.16-2.97,4.63,.71Z"/><polygon class="cls-32" points="111.47 197.37 96.6 197.28 96.6 196.03 111.47 196.03 111.47 197.37"/><path class="cls-33" d="M102.07,192.59s-.19,2.38-5.33,2.26c0,0,.77-2.26,5.33-2.26Z"/><path class="cls-63" d="M106.61,196.03s.14-3.99,4.89-4.02c0,0,.25,2.69-.12,4.02h-4.77Z"/></g><g><path class="cls-43" d="M104.07,193.51c-.07,0-.14-.03-.19-.08l-1.29-1.26c-.11-.11-.12-.3-.02-.42s.28-.13,.39-.02l1.29,1.26c.11,.11,.12,.3,.02,.42-.05,.06-.13,.09-.2,.09Z"/><path class="cls-43" d="M105.32,192.63c-.07,0-.14-.03-.19-.08l-1.29-1.26c-.11-.11-.12-.3-.02-.42s.28-.13,.39-.02l1.29,1.26c.11,.11,.12,.3,.02,.42-.05,.06-.13,.09-.2,.09Z"/><path class="cls-43" d="M106.43,191.75c-.07,0-.14-.03-.19-.08l-1.29-1.26c-.11-.11-.12-.3-.02-.42s.28-.13,.39-.02l1.29,1.26c.11,.11,.12,.3,.02,.42-.05,.06-.13,.09-.2,.09Z"/></g></g><path class="cls-61" d="M104.35,132.5s-1.13,22.5-.14,57.82c0,0,3.03,3.21,7.25,.98,0,0,1.66-37.17,2.23-47.18,0,0,3.8,22.31,7.8,46.92,0,0,4.26,2.08,7.06-.43,0,0-3.56-38.14-5.46-57.02,0,0-11.14,1.56-18.75-1.1Z"/><path class="cls-22" d="M113.69,144.12s-3.58-1.76-4.65-3.25c-1.06-1.49,2.67,8.82,4.31,10.44l.33-7.19Z"/><path class="cls-54" d="M104.45,100.38s-8.1,6.13-11.12,10.85c1.81,2,4.23,4.07,5.28,4.94l5.84-4.73s2.34-6.76,0-11.06Z"/><path class="cls-44" d="M93.78,111.49c-.69,1.08-1.58,1.82-1.58,2.66,0,0-1.61,4.72,7.77,16.33,0,0,2.57,.59,3.1-2.29l-4.86-11.7,.44-.78c-1.05-.87-3.05-2.22-4.86-4.23Z"/><path class="cls-56" d="M99.84,115.34l-1.23,1.72s-5.12-.23-7.46-1.75c0,0,.45-3.08,1.98-4.78,0,0,3.9,2.52,6.71,4.81Z"/><path class="cls-44" d="M103.07,128.19s2.82,1.44,3.98,3.49c0,0,.48,.94-.16,1.17-.63,.22-.24,1.12-.91,1.38-.66,.26-.45,.96-1.42,.99,0,0-.24,.67-.91,.61-.66-.06-2.21-.09-2.33-.44-.12-.35-.91-1.76-.85-1.92,.06-.16,.23-.39,.74-.2,0,0-.42-.37-.76-.93-.34-.56-.5-1.68-.5-1.68l.15-3,2.95,.54Z"/><path class="cls-54" d="M104.45,100.38s-.4,5.59-.34,32.23c0,0,6.5,3.34,19.43,1.01,0,0,.03-8,1.84-15.11,0,0,3.27-13.37,1.62-17.28,0,0-9.25-6.63-22.55-.85Z"/><path class="cls-56" d="M104.11,121.55c-.01,3.21-.01,6.87,0,11.06,0,0,6.5,3.34,19.43,1.01,0,0,.03-8,1.84-15.11,0,0,1.2-4.91,1.78-9.65-3.63,5.71-13.73,19.46-23.05,12.69Z"/><g><path class="cls-44" d="M113.34,97.73l-.02,1.07s.91,1.13,2.88,1.05c1.98-.08,2.8-1.3,2.8-1.3l-.06-2.74c-2.32,1.31-4.63,1.97-5.6,1.91Z"/><path class="cls-60" d="M118.94,95.81l-.13-3.64-5.69,.23,.23,5.32c.98,.06,3.29-.6,5.6-1.91Z"/></g><g><g><path class="cls-39" d="M119.21,81.38s-4.7,1.91-5.89,1.82c-1.19-.09-4.35-1.55-4.35-1.55-1.16,1.02,.09,4.05,.09,4.05l10.82,1.8,2.43,.42c.42-2.06,.56-5.13,.52-6.33-2.2-.15-3.62-.2-3.62-.2Z"/><path class="cls-44" d="M121.32,85.67l-.91,1.54c-.18-.42-.33-.86-.46-1.3-.73-2.56-.75-4.54-.75-4.54-5.5,.64-10.24,.27-10.24,.27,.36,2.93-.6,9.59,1.64,12.84,.67,.97,1.62,1.64,2.97,1.81,5.9,.76,7.32-5.89,7.32-5.89,0,0,1.96-.21,2.24-3.09,.24-2.38-1.81-1.65-1.81-1.65Z"/><path class="cls-39" d="M112.22,87.99c0,.64-.32,1.15-.7,1.14-.38,0-.67-.53-.67-1.17,0-.64,.32-1.15,.7-1.14,.38,0,.67,.53,.67,1.17Z"/><path class="cls-39" d="M117.39,87.83c0,.64-.32,1.15-.7,1.14-.38,0-.67-.53-.67-1.17,0-.64,.32-1.15,.7-1.14,.38,0,.67,.53,.67,1.17Z"/><path class="cls-60" d="M113.97,91.1c-1.16,.42-1.74-.17-1.76-.74-.01-.37,.2-.69,.54-.81,.7-.25,1.24-1.35,1.25-1.36h0c0,.26-.3,1.22-1.2,1.71-.19,.11-.32,.22-.31,.41,.01,.32,.42,.82,1.48,.79h0Z"/><path class="cls-62" d="M110.03,85.83l-.06-.36c.07,0,1.23-.39,2.61-.31l.03,.57c-1.13-.14-2.56,.1-2.58,.11Z"/><path class="cls-62" d="M118.36,85.73c-.93-.34-2.63-.35-2.65-.36l.1-.52c.07,.01,1.61,.01,2.66,.56l-.11,.32Z"/><g><path class="cls-4" d="M112.6,92.36l.43,1.95s2.66,.72,2.99-2.02c0,0-1.93,.42-3.42,.07Z"/><path class="cls-19" d="M112.8,93.18s1.3,.28,2.11,0c0,0-.53,.42-2.04,.28l-.07-.27Z"/></g></g><g><path class="cls-48" d="M107.84,80.05s-3.9,1.55,.65,2.09c0,0-1.91,2.27,4.51,2.48,6.42,.21,7.38-1.87,7.38-1.87,0,0,8.01,.03,3.3-2.35-4.71-2.38-15.83-.35-15.83-.35Z"/><path class="cls-42" d="M107.96,81.14s7.02,1.57,15.49,.34c0,0,2.3-9.72-7.42-10.35-9.75-.63-8.08,10.01-8.08,10.01Z"/><path class="cls-5" d="M122.54,74.48c-1.48,6.17-10.13,6.85-13.36,6.88,2.36,.38,7.91,1.04,14.28,.12,0,0,.94-3.97-.92-7Z"/><path class="cls-52" d="M115.8,82.34l.89-.39s-.44-8.45,1.84-10.4l-.15-.68s-4.76,.68-2.58,11.46Z"/><path class="cls-48" d="M115.8,82.34s-.54-10,2.58-11.46c0,0-1.6-.68-4.54-.31,0,0-3.18,2.29-2.18,11.45,0,0,2.01,.43,4.14,.31Z"/></g></g><path class="cls-56" d="M113.25,97.14s.39,1.82,2.21,2.68c0,0,3.3-.81,3.53-3.16l1.81,1.96s-1.05,3.36-3.68,4.4l-1.64-2.65-2.23,2.19s-2.08-2.52-1.9-4.23l1.9-1.19Z"/><g><path class="cls-35" d="M103.6,131.83s-.71,9.9-.92,13.57c0,0,2.08,2.42,5.77,2.42l.5-12.14s4.62,.68,7.24,.38c0,0,.81,11.39,.81,12.2,0,0,2.99,.66,8.79-.88l-1.73-14.1s-12.86,2.53-20.45-1.46Z"/><g><polygon class="cls-30" points="123.37 160.09 121.71 160.21 120.76 145.4 122.43 145.28 123.37 160.09"/><polygon class="cls-66" points="120.87 147.14 122.47 146.02 122.43 145.28 120.76 145.4 120.87 147.14"/><path class="cls-31" d="M124.35,144.81c.02,.26-.17,.49-.42,.51l-4.64,.33c-.25,.02-.46-.18-.48-.44l-.11-1.69c-.02-.26,.17-.49,.42-.51l4.64-.33c.25-.02,.46,.18,.48,.44l.11,1.69Z"/><path class="cls-47" d="M118.95,145.53c.09,.08,.21,.13,.33,.12l4.64-.33c.25-.02,.44-.25,.42-.51l-.11-1.69c0-.1-.04-.19-.09-.26-.19,.77-1.1,2.32-5.19,2.67Z"/></g><path class="cls-64" d="M119.8,146.76s1.39,.33,3.61-.22v.99s-1.67,.73-3.61,.27v-1.04Z"/><path class="cls-64" d="M103.24,143.92s.67,.68,1.81,.47l-.06,1.22s-.87,.56-1.81-.41l.07-1.27Z"/><path class="cls-64" d="M105.8,144.88s.67,.68,1.81,.47l-.06,1.22s-.87,.56-1.81-.41l.07-1.27Z"/><path class="cls-64" d="M118,141.75s3.06,.24,6.39-.64v-.62s-3.75,.82-6.39,.65v.62Z"/><path class="cls-64" d="M103.29,141.76s2.19,.84,4.85,.64l.15-.61s-2.95,.05-4.85-.64l-.14,.6Z"/><path class="cls-64" d="M103.57,139.26s2.19,.84,4.85,.64l.15-.61s-2.95,.05-4.85-.64l-.14,.6Z"/><path class="cls-64" d="M117.58,139.54s3.06,.24,6.39-.64v-.62s-3.75,.82-6.39,.65v.62Z"/></g><g><path class="cls-20" d="M120.56,98.36s-3.88,10.52-3.17,38.96c0,0,1.65,.52,7.76-.66l1.42-18.82s-1.94-6.56-1.35-17.61c0,0-1.28-1.86-4.66-1.87Z"/><path class="cls-46" d="M117.32,133.43c2.58,0,5.32-.2,8.13-.71l.33-4.32c-2.93,.56-5.79,.78-8.47,.77,0,1.37,0,2.79,.02,4.26Z"/><path class="cls-46" d="M126.06,124.67l.35-4.63c-3.09,.64-6.11,.89-8.94,.9-.06,1.44-.1,2.96-.13,4.56,2.76,0,5.7-.24,8.72-.83Z"/></g><path class="cls-44" d="M124.87,129.09s-2.98,1.03-4.39,2.9c0,0-.59,.87,0,1.18,.6,.31,.1,1.15,.73,1.49,.63,.35,.33,1.02,1.28,1.18,0,0,.16,.7,.82,.73,.67,.03,2.2,.22,2.36-.11,.16-.33,1.12-1.61,1.08-1.78-.04-.17-.18-.41-.71-.3,0,0,.46-.3,.87-.81,.41-.51,.7-1.6,.7-1.6l.23-3-3,.12Z"/><path class="cls-44" d="M137.51,116.06c-3.23,.05-4.57,1.86-5.59,2.33l.8,1.11-7.85,9.59c.27,3.04,2.77,2.88,2.77,2.88,12.41-9.13,11.3-13.56,11.3-13.56-.09-.46-1.23-1.84-1.43-2.35Z"/><g><path class="cls-20" d="M110.85,98.42s-2.26,13.11-1.88,38.9c0,0-4.35-.46-7.06-2.87,0,0,.35-14.46,.69-17.84,0,0,2.33-8.04,2.36-16.74,0,0,2.81-1.84,5.89-1.44Z"/><path class="cls-46" d="M109.11,120.28c-2.77-.44-5.06-1.01-6.66-1.48-.07,1.27-.14,2.84-.2,4.5,1.58,.47,3.91,1.07,6.74,1.52,.03-1.58,.07-3.1,.12-4.54Z"/><path class="cls-46" d="M108.94,128.49c-2.89-.46-5.25-1.08-6.82-1.55-.05,1.53-.09,3-.13,4.22,1.57,.48,3.97,1.11,6.93,1.59,0-1.47,0-2.89,.01-4.26Z"/></g><path class="cls-54" d="M126.99,101.23c-2.86,3.93-.59,11.93-.59,11.93l5.03,5.44c1.03-.47,3.96-1.68,6.88-2.59-3.11-5.43-11.32-14.78-11.32-14.78Z"/><path class="cls-56" d="M131.04,118.18l1.02,1.86s5.14,.15,7.64-1.07c0,0-.45-2.49-1.77-4.36,0,0-3.84,1.65-6.89,3.56Z"/></g><g><path class="cls-36" d="M164.11,96.34s-3.44-.89-7.77,.02l-.46,3.5,9-.16-.76-3.36Z"/><g><path class="cls-41" d="M171.84,111.44s-2.34-6.76,0-11.06c0,0,8.1,6.13,11.12,10.85,.69,1.08,1.62,2.4,1.62,3.24,0,0,1.11,4.41-8.27,16.02,0,0-3.11,.2-3.65-2.68l5.4-11.31-.4-.32-5.84-4.73Z"/><path class="cls-43" d="M168.73,131.71c.94-1.67,2.89-2.96,3.83-3.52l1.03-3.43c3.98-.5,5.65,2.92,5.65,2.92l-2.79,3.18h0c-.07,.4-.23,1.14-.5,1.57-.38,.62-.83,1.02-.83,1.02,.56-.2,.74,.05,.81,.22,.07,.18-.8,1.72-.93,2.1-.13,.39-1.82,.42-2.55,.49-.73,.07-.99-.67-.99-.67-1.06-.04-.83-.81-1.56-1.09-.73-.28-.3-1.26-1-1.51-.7-.25-.17-1.28-.17-1.28Z"/><path class="cls-5" d="M178.86,128.68s-2.41-3.45-5.96-3.14l-.23,1.22s3.14,.45,5.22,3.04l.96-1.11Z"/></g><g><g><path class="cls-50" d="M154.75,196.18h-7.92s-.47-2.28,1.19-5.22l5.34,.1s1.54,2.33,1.4,5.12Z"/><rect class="cls-32" x="146.9" y="196.18" width="7.92" height="1.32"/><path class="cls-33" d="M147.8,193.74c0,.57,1.34,1.04,2.99,1.04s2.99-.46,2.99-1.04-1.34-1.04-2.99-1.04-2.99,.46-2.99,1.04Z"/></g><path class="cls-43" d="M152.31,192.36c0-.16-.12-.29-.28-.29h-2.36c-.15,0-.28,.13-.28,.29h0c0,.16,.12,.29,.28,.29h2.36c.15,0,.28-.13,.28-.29h0Z"/><path class="cls-43" d="M152.31,191.33c0-.16-.12-.29-.28-.29h-2.36c-.15,0-.28,.13-.28,.29h0c0,.16,.12,.29,.28,.29h2.36c.15,0,.28-.13,.28-.29h0Z"/></g><g><g><path class="cls-50" d="M165.01,190.3s-.61,3.38-.15,5.73h14.91s.51-3.47-5.97-3.46l-4.16-2.97-4.63,.71Z"/><polygon class="cls-32" points="164.96 197.37 179.82 197.28 179.82 196.03 164.96 196.03 164.96 197.37"/><path class="cls-33" d="M174.22,192.59s.19,2.38,5.33,2.26c0,0-.77-2.26-5.33-2.26Z"/><path class="cls-63" d="M169.68,196.03s-.14-3.99-4.89-4.02c0,0-.25,2.69,.12,4.02h4.77Z"/></g><g><path class="cls-43" d="M172.21,193.51c.07,0,.13-.03,.19-.08l1.29-1.26c.11-.11,.12-.3,.02-.42s-.28-.13-.39-.02l-1.29,1.26c-.11,.11-.12,.3-.02,.42,.05,.06,.13,.09,.2,.09Z"/><path class="cls-43" d="M170.96,192.63c.07,0,.13-.03,.19-.08l1.29-1.26c.11-.11,.12-.3,.02-.42s-.28-.13-.39-.02l-1.29,1.26c-.11,.11-.12,.3-.02,.42,.05,.06,.13,.09,.2,.09Z"/><path class="cls-43" d="M169.85,191.75c.07,0,.13-.03,.19-.08l1.29-1.26c.11-.11,.12-.3,.02-.42s-.28-.13-.39-.02l-1.29,1.26c-.11,.11-.12,.3-.02,.42,.05,.06,.13,.09,.2,.09Z"/></g></g><path class="cls-51" d="M172.18,132.61s.89,22.39-.1,57.71c0,0-3.03,3.21-7.25,.98,0,0-1.66-37.17-2.23-47.18,0,0-3.8,22.31-7.8,46.92,0,0-4.26,2.08-7.06-.43,0,0,3.12-38.12,5.02-57,0,0,11.82,1.65,19.43-1.01Z"/><path class="cls-1" d="M162.59,144.12s3.58-1.76,4.65-3.25c1.06-1.49-2.67,8.82-4.31,10.44l-.33-7.19Z"/><path class="cls-41" d="M171.84,100.38s.4,5.59,.34,32.23c0,0-6.5,3.34-19.43,1.01,0,0-.03-8-1.84-15.11,0,0-3.27-13.37-1.62-17.28,0,0,9.25-6.63,22.55-.85Z"/><path class="cls-51" d="M172.18,121.55c0,3.21,.01,6.87,0,11.06,0,0-6.5,3.34-19.43,1.01,0,0-.03-8-1.84-15.11,0,0-1.2-4.91-1.78-9.65,3.63,5.71,13.73,19.46,23.05,12.69Z"/><path class="cls-22" d="M155.74,188.46l-.53,3.28s-4.28,1.5-8.03-.95v-3.28s4.21,1.91,8.56,.96Z"/><path class="cls-22" d="M164.19,188.29l.2,3.46s3.9,2.07,8.21-1.26v-3.53s-3.01,1.62-8.41,1.32Z"/><path class="cls-38" d="M164.09,98.17s.6,4.54-1.66,12.38c0,0-4.2-8.46-6.56-11.97,0,0,4.13-1.05,8.22-.4Z"/><g><path class="cls-44" d="M162.95,97.73l.02,1.07s-.91,1.13-2.88,1.05c-1.98-.08-2.8-1.3-2.8-1.3l.06-2.74c2.32,1.31,4.63,1.97,5.6,1.91Z"/><path class="cls-60" d="M157.35,95.81l.13-3.64,5.69,.23-.23,5.32c-.98,.06-3.29-.6-5.6-1.91Z"/></g><path class="cls-22" d="M166.18,98.56l-2.07-2.22-.64,5.93,2.71,1.47s.22-3.99,0-5.18Z"/><path class="cls-22" d="M154.43,98.95l1.91-2.59,2.22,5.56-2.13,2.16s-1.8-3.95-2-5.14Z"/><path class="cls-22" d="M163.26,132.98c.19,0,.34-.15,.35-.35,.48-12.61-.81-22.04-.83-22.13-.03-.2-.2-.34-.39-.31-.19,.03-.32,.22-.29,.42,.01,.09,1.3,9.46,.82,21.99,0,.2,.14,.37,.33,.38h.01Z"/><path class="cls-22" d="M159.87,111.4l-5.66,.45s-.26,7.68,3.67,7.4c3.93-.28,2-7.84,2-7.84Z"/><path class="cls-22" d="M170.81,111.04l-5.67,.28s-.46,7.67,3.47,7.5c3.94-.17,2.2-7.78,2.2-7.78Z"/><rect class="cls-22" x="153.56" y="131.81" width="1.11" height="3.82"/><rect class="cls-22" x="159.12" y="131.81" width="1.11" height="3.82"/><rect class="cls-22" x="166.21" y="131.81" width="1.11" height="3.82"/><rect class="cls-22" x="170.38" y="131.22" width="1.11" height="3.82"/><g><path class="cls-2" d="M158.58,149.02l.45-5.17-8.67-.84,.1-1.17,8.67,.84s2.07,.44,1.8,3.54c-.32,3.67-2.35,2.8-2.35,2.8Z"/><polygon class="cls-18" points="154.42 149.29 155.05 149.35 155.56 143.52 154.93 143.46 154.42 149.29"/><polygon class="cls-18" points="157.89 149.63 158.52 149.69 159.02 143.85 158.39 143.79 157.89 149.63"/><path class="cls-57" d="M139.44,145.89c-.13,1.54,.9,1.54,.9,1.54l14.13,1.37,.6-7-1.58-.15-2.28,4.04-10.6-1.03s-1.05-.29-1.18,1.23Zm.87,.1c.02-.28,.25-.48,.52-.45,.26,.03,.45,.27,.43,.55-.02,.28-.25,.48-.52,.45-.26-.03-.45-.27-.43-.55Z"/></g><g><path class="cls-41" d="M149.29,101.23s-4.2,1.55-5.82,19.4c0,0-2.21,10.49-.73,18.6,0,0,2.49,1.55,5.31-.22,0,0,1.1-13.24,1.14-16.38l2.12-7.72s.75-12.12-2.02-13.67Z"/><g><path class="cls-43" d="M141.96,136.97c4.32-1.98,7.1,.26,7.1,.26l-1.14,4.7c.4,.59,1.05,1.55,1.37,2.07,.38,.63,1.85,1.79,1.85,1.79,0,0-.97,2.05-3.01-.44,0,0-.03,3.3-.73,3.38,0,0-.66,.18-1.07-.29,0,0-.67,.7-1.35-.08,0,0-.85,.47-1.22-.21,0,0-.77,.32-1.14-.45-.38-.8-.19-.82-.41-2.4,0,0,.11-1.41,.49-2.67l-.75-5.65Z"/><path class="cls-5" d="M149.07,138.61s-3.89-2.2-7.31-.17l.29,1.3s3.33-1.09,6.52,.42l.49-1.56Z"/></g></g><g><g><path class="cls-39" d="M157.08,81.38s4.7,1.91,5.89,1.82c1.19-.09,4.35-1.55,4.35-1.55,1.16,1.02-.09,4.05-.09,4.05l-10.82,1.8-2.43,.42c-.42-2.06-.56-5.13-.52-6.33,2.2-.15,3.62-.2,3.62-.2Z"/><path class="cls-44" d="M154.96,85.67l.91,1.54c.18-.42,.33-.86,.46-1.3,.73-2.56,.75-4.54,.75-4.54,5.5,.64,10.24,.27,10.24,.27-.36,2.93,.6,9.59-1.64,12.84-.67,.97-1.62,1.64-2.97,1.81-5.9,.76-7.32-5.89-7.32-5.89,0,0-1.96-.21-2.24-3.09-.24-2.38,1.81-1.65,1.81-1.65Z"/><path class="cls-39" d="M164.07,87.99c0,.64,.32,1.15,.7,1.14,.38,0,.67-.53,.67-1.17,0-.64-.32-1.15-.7-1.14-.38,0-.67,.53-.67,1.17Z"/><path class="cls-39" d="M158.89,87.83c0,.64,.32,1.15,.7,1.14,.38,0,.67-.53,.67-1.17,0-.64-.32-1.15-.7-1.14-.38,0-.67,.53-.67,1.17Z"/><path class="cls-60" d="M162.31,91.1c1.16,.42,1.74-.17,1.76-.74,.01-.37-.2-.69-.54-.81-.7-.25-1.24-1.35-1.25-1.36h0c0,.26,.3,1.22,1.2,1.71,.19,.11,.32,.22,.31,.41-.01,.32-.42,.82-1.48,.79h0Z"/><path class="cls-62" d="M166.26,85.83l.06-.36c-.07,0-1.23-.39-2.61-.31l-.03,.57c1.13-.14,2.56,.1,2.58,.11Z"/><path class="cls-62" d="M157.93,85.73c.93-.34,2.63-.35,2.65-.36l-.1-.52c-.07,.01-1.61,.01-2.66,.56l.11,.32Z"/><g><path class="cls-25" d="M164.06,92.31s-1.63,.45-4.19-.22c0,0,.52,2.24,2.29,2.19,1.57-.05,1.9-1.97,1.9-1.97Z"/><path class="cls-4" d="M164,92.42s-1.7,.52-4.02-.21c0,0,.35,.94,2.2,.98,1.64,.03,1.82-.77,1.82-.77Z"/></g></g><g><path class="cls-48" d="M168.45,80.05s3.9,1.55-.65,2.09c0,0,1.91,2.27-4.51,2.48-6.42,.21-7.38-1.87-7.38-1.87,0,0-8.01,.03-3.3-2.35,4.71-2.38,15.83-.35,15.83-.35Z"/><path class="cls-42" d="M168.33,81.14s-7.02,1.57-15.49,.34c0,0-2.3-9.72,7.42-10.35,9.75-.63,8.08,10.01,8.08,10.01Z"/><path class="cls-5" d="M153.75,74.48c1.48,6.17,10.13,6.85,13.36,6.88-2.36,.38-7.91,1.04-14.28,.12,0,0-.94-3.97,.92-7Z"/><path class="cls-52" d="M160.48,82.34l-.89-.39s.44-8.45-1.84-10.4l.15-.68s4.76,.68,2.58,11.46Z"/><path class="cls-48" d="M160.48,82.34s.54-10-2.58-11.46c0,0,1.6-.68,4.53-.31,0,0,3.18,2.29,2.18,11.45,0,0-2.01,.43-4.14,.31Z"/></g></g></g><g><g><path class="cls-53" d="M35.19,101.06l-.97,.07-.35-5.42c-.01-.22,.11-.43,.3-.51l12.68-5.36-.19-2.87-3.47,.25-.07-1.03,3.95-.29c.27-.02,.5,.19,.52,.48l.24,3.75c.01,.22-.11,.43-.3,.51l-12.68,5.36,.33,5.05Z"/><path class="cls-59" d="M45.68,88.84c.01,.23-.15,.43-.37,.44l-22.36,1.63c-.22,.02-.41-.16-.42-.39l-.29-4.45c-.01-.23,.15-.43,.37-.44l22.36-1.63c.22-.02,.41,.16,.42,.39l.29,4.45Z"/><polygon class="cls-27" points="42.14 197.34 39.93 197.5 33.65 100.88 35.87 100.72 42.14 197.34"/><path class="cls-52" d="M36.83,106.92c.02,.31-.11,.52-.28,.53l-2.7,.2c-.17,.01-.33-.18-.35-.48l-.51-7.88c-.02-.31,.1-.56,.28-.58l2.7-.2c.17-.01,.33,.23,.35,.53l.51,7.88Z"/></g><path class="cls-44" d="M41.45,123.7l-.98-.7s-1.12-.96-1.77-1.3c-.96-.49-1.29-2.29-1.29-2.29,0,0-1.48,.09-.25,2.87,0,0-3.05-.18-3.28,.47,0,0,.01,.62,.12,1.03,0,0-.35,.51,.09,1.22,0,0-.5,.75-.06,1.16,0,0-.03,.63,.48,1.03,.52,.41,.6,.28,1.76,.6,0,0,2.52,.09,3.68-1l1.49-3.09Z"/><path class="cls-48" d="M41.79,121.19l-2.19,.46s-1.14,2.53,.78,5.26l2.42-.6-1-5.12Z"/><path class="cls-58" d="M59.43,100.35s-3.02,1.67-3.93,7.73c-.74,4.98-3.48,9.85-3.48,9.85,0,0-5.06,1.02-10.57,2.96,0,0-1.76,3.96,1.35,5.92,0,0,14.86-.24,15.92-5.27,1.05-5.03,4.86-16.42,.71-21.19Z"/><g><g><path class="cls-50" d="M76.52,196.18h7.92s.47-2.3-1.19-5.24l-5.34,.11s-1.54,2.34-1.4,5.13Z"/><rect class="cls-32" x="76.59" y="196.18" width="7.92" height="1.32"/><path class="cls-33" d="M83.47,193.71c0,.57-1.34,1.04-2.99,1.04s-2.99-.46-2.99-1.04,1.34-1.04,2.99-1.04,2.99,.46,2.99,1.04Z"/></g><path class="cls-43" d="M82.01,192.36c0,.16-.12,.29-.28,.29h-2.36c-.15,0-.28-.13-.28-.29h0c0-.16,.12-.29,.28-.29h2.36c.15,0,.28,.13,.28,.29h0Z"/><path class="cls-43" d="M82.01,191.33c0,.16-.12,.29-.28,.29h-2.36c-.15,0-.28-.13-.28-.29h0c0-.16,.12-.29,.28-.29h2.36c.15,0,.28,.13,.28,.29h0Z"/></g><g><g><path class="cls-50" d="M66.26,190.29s.61,3.39,.15,5.74h-14.91s-.51-3.49,5.97-3.48l4.16-2.97,4.63,.71Z"/><polygon class="cls-32" points="66.45 197.34 51.58 197.26 51.58 196.03 66.45 196.03 66.45 197.34"/><path class="cls-33" d="M57.05,192.56s-.19,2.38-5.33,2.26c0,0,.77-2.26,5.33-2.26Z"/><path class="cls-63" d="M61.59,196.03s.14-3.99,4.89-4.02c0,0,.25,2.69-.12,4.02h-4.77Z"/></g><g><path class="cls-43" d="M59.06,193.49c-.07,0-.14-.03-.19-.08l-1.29-1.26c-.11-.11-.12-.3-.02-.42,.1-.12,.28-.13,.39-.02l1.29,1.26c.11,.11,.12,.3,.02,.42-.05,.06-.13,.09-.2,.09Z"/><path class="cls-43" d="M60.31,192.6c-.07,0-.14-.03-.19-.08l-1.29-1.26c-.11-.11-.12-.3-.02-.42,.1-.12,.28-.13,.39-.02l1.29,1.26c.11,.11,.12,.3,.02,.42-.05,.06-.13,.09-.2,.09Z"/><path class="cls-43" d="M61.42,191.72c-.07,0-.14-.03-.19-.08l-1.29-1.26c-.11-.11-.12-.3-.02-.42,.1-.12,.28-.13,.39-.02l1.29,1.26c.11,.11,.12,.3,.02,.42-.05,.06-.13,.09-.2,.09Z"/></g></g><path class="cls-41" d="M59.09,132.58s-.89,22.39,.1,57.71c0,0,3.03,3.21,7.25,.98,0,0,1.66-37.17,2.23-47.18,0,0,3.8,22.31,7.8,46.92,0,0,4.26,2.08,7.06-.43,0,0-3.12-38.12-5.02-57,0,0-11.82,1.65-19.43-1.01Z"/><path class="cls-1" d="M68.67,144.09s-3.58-1.76-4.65-3.25c-1.06-1.49,2.67,8.82,4.31,10.44l.33-7.19Z"/><path class="cls-48" d="M59.43,100.35s-.4,5.59-.34,32.23c0,0,6.5,3.34,19.43,1.01,0,0,.03-8,1.84-15.11,0,0,3.27-13.37,1.62-17.28,0,0-9.25-6.63-22.55-.85Z"/><path class="cls-22" d="M75.6,188.43l.56,3.28s4.32,1.5,8.07-.95v-3.28s-4.28,1.91-8.63,.96Z"/><path class="cls-22" d="M67.15,188.26l-.16,3.46s-3.87,2.07-8.18-1.26v-3.53s2.95,1.62,8.34,1.32Z"/><g><path class="cls-44" d="M68.32,97.7l-.02,1.07s.91,1.13,2.88,1.05c1.98-.08,2.8-1.3,2.8-1.3l-.06-2.74c-2.32,1.31-4.63,1.97-5.6,1.91Z"/><path class="cls-60" d="M73.92,95.79l-.13-3.64-5.69,.23,.23,5.32c.98,.06,3.29-.6,5.6-1.91Z"/></g><path class="cls-28" d="M64.6,81.93l-.32-2.53s-1.07-6.76,7.38-6.62c7.34,.12,6.86,7.61,6.86,7.61l-.23,3.03-1.78,3.01-11.9-4.5Z"/><path class="cls-44" d="M77.68,82.98l-1.1,1.66c-.18-.48-.32-.97-.44-1.47-.67-2.89-.38-5.91-.38-5.91-6.3,2.43-11.18,.59-11.18,.59,.43,7.1-1.65,10.49,.65,14.26,.69,1.12,1.7,1.92,3.2,2.21,6.52,1.23,8.48-6.09,8.48-6.09,0,0,2.19-.11,2.67-3.3,.4-2.64-1.93-1.95-1.93-1.95Z"/><path class="cls-28" d="M64.12,87.8s5.68,2.69,12.37-1.36c0,0,.2,1.15,.25,2.37,.05,1.22,.48,6.97-7.19,6.83-7.78-.14-5.42-7.84-5.42-7.84Z"/><path class="cls-39" d="M67.41,84.97c-.05,.71-.42,1.26-.84,1.23-.42-.03-.72-.63-.67-1.34,.05-.71,.42-1.26,.84-1.23,.42,.03,.72,.63,.67,1.34Z"/><path class="cls-39" d="M73.18,85.13c-.05,.71-.42,1.26-.84,1.23-.42-.03-.72-.63-.67-1.34,.05-.71,.42-1.26,.84-1.23,.42,.03,.72,.63,.67,1.34Z"/><path class="cls-21" d="M69.19,88.55c-1.31,.4-1.93-.3-1.92-.94,0-.41,.26-.75,.65-.87,.8-.23,1.46-1.42,1.47-1.43h0c-.03,.29-.41,1.33-1.44,1.82-.22,.11-.37,.23-.37,.43,0,.36,.42,.94,1.6,.98h0Z"/><path class="cls-28" d="M67.72,81.6s-1.38,.18-2.27,.57c-.89,.39-.86-.4-.58-.71,.28-.31,1.81-1.16,2.62-.95,.81,.22,.62,.91,.23,1.09Z"/><path class="cls-28" d="M71.13,81.66s1.38,.23,2.25,.64c.88,.42,.87-.37,.6-.69-.27-.32-1.77-1.22-2.59-1.04-.82,.19-.65,.89-.26,1.08Z"/><g><path class="cls-52" d="M78.29,75.22c-2.97-4.34-7.11-4.41-7.11-4.41,0,0,3.62,1.95,4.45,4.02l.51,4.86c1.45,.37,2.37,.7,2.37,.7,.33-2.99-.22-5.17-.22-5.17Z"/><path class="cls-48" d="M71.18,70.81c-4.2,.42-5.71,2.16-5.71,2.16-.9,1.31-1.55,6.47-1.55,6.47,4.1-1.44,9.27-.49,12.22,.25l-.51-4.86c-.84-2.07-4.45-4.02-4.45-4.02Z"/><path class="cls-42" d="M59.92,77.24s-.22-.99,.92-1.32c1.15-.33,8.26-1.24,11.47,.76,0,0,1.21,.66,2.16,1.45,.85,.7,1.67,1.56,1.67,1.56l-.45,.02-15.77-2.48Z"/><path class="cls-5" d="M63.92,79.44s-6.69-2.19-2.91-3.05c3.78-.86,9.25-.55,11.26,.66,0,0,1.59,.82,3.42,2.67,0,0-7.24-1.36-11.77-.28Z"/><path class="cls-42" d="M71.85,70.69c0,.22-.32,.4-.7,.39-.38,0-.69-.19-.69-.42,0-.22,.32-.4,.7-.39,.38,0,.69,.19,.69,.42Z"/></g><g><path class="cls-37" d="M66.67,95.18s-.04,0-.05-.02c-2.25-2.44-1.67-6.78-1.66-6.82,0-.04,.04-.07,.08-.06,.04,0,.06,.04,.06,.08,0,.04-.58,4.31,1.62,6.7,.03,.03,.03,.08,0,.1-.01,.01-.03,.02-.05,.02Z"/><path class="cls-37" d="M68.64,95.69s-.04-.01-.06-.03c-2.07-3.36-1.65-6.99-1.64-7.03,0-.04,.04-.07,.08-.06,.04,0,.06,.04,.06,.08,0,.04-.42,3.61,1.62,6.93,.02,.03,.01,.08-.02,.1-.01,0-.03,.01-.04,.01Z"/><path class="cls-37" d="M70.01,95.72s-.05-.02-.06-.05c-.95-2.73-.67-6.95-.67-6.99,0-.04,.04-.07,.07-.07,.04,0,.07,.04,.06,.08,0,.04-.28,4.23,.66,6.93,.01,.04,0,.08-.04,.09,0,0-.02,0-.02,0Z"/><path class="cls-37" d="M72.17,95.48s-.05-.01-.06-.04c-1.25-2.48-.75-6.99-.74-7.03,0-.04,.04-.07,.08-.06,.04,0,.07,.04,.06,.08,0,.04-.51,4.51,.72,6.95,.02,.04,0,.08-.03,.1-.01,0-.02,0-.03,0Z"/><path class="cls-37" d="M74.47,94.6s-.03,0-.05-.02c-1.54-1.45-1.51-6.32-1.51-6.53,0-.04,.03-.04,.07-.04h0s.07,0,.07,.04c0,.05-.03,5.03,1.46,6.43,.03,.03,.03,.07,0,.1-.01,.02-.03,.02-.05,.02Z"/><path class="cls-37" d="M76.31,92.22s-.03,0-.04-.02c-1.23-1.05-1.66-4.64-1.68-4.8,0-.04,.02-.08,.06-.08,.04,0,.07,.02,.08,.06,0,.04,.44,3.69,1.62,4.7,.03,.03,.03,.07,.01,.1-.01,.02-.03,.03-.06,.03Z"/></g><g><path class="cls-34" d="M67.48,90.19c-.06-.16-.07-.35-.05-.5-.22-.04-.33-.07-.33-.07,0,0-.04,.43,.13,.9,.13-.29,.25-.32,.25-.32Z"/><path class="cls-4" d="M71.21,90.14c.08-.18,.05-.37,0-.52-1.88,.32-3.21,.17-3.79,.06-.02,.16-.02,.34,.05,.5,0,0-.12,.03-.25,.32,.2,.57,.7,1.18,1.94,1.16,1.41-.02,2-.73,2.24-1.31-.09-.17-.2-.21-.2-.21Z"/><path class="cls-34" d="M71.58,89.56c-.12,.02-.25,.05-.37,.07,.05,.15,.07,.34,0,.52,0,0,.11,.05,.2,.21,.18-.43,.17-.8,.17-.8Z"/></g><path class="cls-41" d="M59.1,132.59l-.37-3.5,1.8-.72s.79-23.41,2.81-29.41c0,0,1.19-.73,2.28-.52,0,0-1.23,10.34-.94,14.6l9.04,.07s.91-6.86,3.03-14.22c0,0,1.39,0,2.63,.94,0,0-2.98,14.48-3.32,28.54,0,0,1.29,.5,3.16,1.13l-.71,4.09s-12.29,3.64-19.42-1Z"/><path class="cls-49" d="M63.36,115.83s5.07,.07,10.98,.15c0,0-.41,4.26-.48,7.05,0,0-5.73,4.96-10.77-.15,0,0-.42-3.6,.28-7.05Z"/><g><g><polygon class="cls-59" points="91.89 169.87 79.96 169.87 78.59 154.29 93.18 154.29 91.89 169.87"/><path class="cls-26" d="M79.76,167.61l.2,2.26h11.93l.65-7.89c-2,2.83-5.76,5.65-12.79,5.63Z"/><rect class="cls-26" x="77.98" y="153.41" width="15.84" height="1.76"/><path class="cls-53" d="M90.04,153.41s.06-3.48-1.6-5.28c-.62-.67-1.42-1.01-2.37-1.01-1.07,0-1.94,.37-2.6,1.11-1.62,1.82-1.46,6.19-1.45,6.22,.01,.19-.13,.35-.3,.36-.18,.01-.33-.13-.34-.32,0-.15-.19-4.69,1.63-6.73,.78-.88,1.81-1.32,3.07-1.32,1.13,0,2.09,.42,2.83,1.23,1.85,2.01,1.78,5.59,1.78,5.74h-.64Z"/></g><polygon class="cls-58" points="90.69 162.38 81.19 162.38 80.86 157.82 91.01 157.82 90.69 162.38"/></g><g><path class="cls-44" d="M84.97,141.3l-.59,1.28s-1.39,1.85-1.4,2.68c-.02,1.07-.68,2.58-.68,2.58,0,0,1.07,.73,1.58-1.11,0,0,.12,2.16,.73,2.24,0,0,.33,.05,.7-.17,0,0,.57,.64,1.2-.03,0,0,.71,.37,1.06-.23,0,0,.45,.37,.79-.3,.35-.69,.38-.76,.62-2.15,0,0-.04-2.86-1.1-3.9l-2.9-.9Z"/><path class="cls-45" d="M83.99,140.31l.1,2.29s1.56,1.6,4.76,.3l.17-2.14-5.03-.45Z"/><path class="cls-48" d="M81.98,101.2s5.07,1.14,6.95,20.43c0,0,2.04,11.16,.25,19.67,0,0-2.68,1.56-5.6-.4,0,0-.8-14.03-.74-17.34l-1.97-9.09s-1.86-11.7,1.11-13.26Z"/></g></g><g><path class="cls-44" d="M221.21,116.8c.53,.87,1.03,1.6,1.14,1.96,0,0,1.91,2.73-4.96,12.29,0,0-2.06,.42-2.43-1.89l2.91-8.39-.72-.75c.86-.68,2.58-1.65,4.06-3.21Z"/><path class="cls-44" d="M214.95,129.15s-2.28,1.09-3.24,2.7c0,0-.4,.74,.1,.93,.5,.19,.17,.9,.7,1.12,.53,.22,.34,.78,1.12,.82,0,0,.18,.54,.71,.5s1.76-.03,1.86-.31c.1-.28,.76-1.38,.71-1.51-.05-.13-.17-.31-.59-.17,0,0,.34-.28,.62-.73,.28-.44,.43-1.33,.43-1.33l-.06-2.4-2.37,.37Z"/><path class="cls-3" d="M212.11,106.8s6.47,6.13,9.28,10.02c-1.48,1.56-3.34,2.75-4.2,3.42l-5.6-6.39s-1.43-3.66,.51-7.05Z"/><path class="cls-29" d="M198.85,86.43s-5.35-3.42-3.97,17.62c0,0,1.94,1.63,5.67,0,0,0,.94-14.14-1.7-17.62Z"/><path class="cls-20" d="M200.2,105.5s4.91-1.69,8.66-.16h0c2.22,.6,3.3,1.46,3.3,1.46l.53,3.48c2.18,2.95,2.81,4.66,2.83,5.52,.05,1.93-2.04,3.64-2.04,3.64l-.27,9.9c-7.24,2.98-12.26,.17-12.26,.17-.8-5.79-4.26-14.24-4.26-14.24l.05-8.36c1.11-.69,2.35-1.12,3.48-1.41Z"/><g><path class="cls-44" d="M206.51,103.47l.03,1.73s-.45,1.02-2.11,1.03c-1.67,0-2.11-1.05-2.11-1.05l-.02-2.79c1.75,1.21,3.52,1.18,4.21,1.08Z"/><path class="cls-21" d="M202.29,102.4v-3.64l4.19-.02,.02,4.74c-.72,.1-2.46,.13-4.21-1.08Z"/></g><path class="cls-3" d="M203.18,117.21c2.78,.98,8.78-.76,12.37-1.28-.05,1.88-2.06,3.51-2.06,3.51l-.28,9.9c-7.24,2.98-12.22,.17-12.22,.17-.8-5.79-4.22-14.24-4.22-14.24v-2.67c2.08,1.36,4.47,3.92,6.41,4.6Z"/><g><path class="cls-28" d="M211.64,92.98s3.88-12.01-5.57-10.5c0,0-9.14-3.65-8.83,9.94,0,0,8.77,8.04,14.4,.56Z"/><path class="cls-55" d="M212.41,87.3c-.11-1.74-.65-3.42-2.13-4.31-3.66,4.08-7.2,1.58-9.12-.49-1.21,.54-2.38,1.62-3.12,3.68,3.12,1.01,9.22,2.54,14.37,1.12Z"/><g><path class="cls-44" d="M198.62,92.27l.53,.21c4.93-2.42,6.58-7.94,6.58-7.94,1.2,3.18,4.28,7.66,5.92,8.44,.02,1.05-.15,2.64-.33,4.06-.35,2.78-1.8,4.76-4.42,5.29-6.3,1.28-7.81-5.07-7.81-5.07,0,0-2.35-.05-2.49-3.27-.12-2.63,2.03-1.73,2.03-1.73Z"/><path class="cls-21" d="M199.66,96.61s1.51,4.71,4.99,5.36c2.12,.4,3.98-.48,5.12-1.23-.72,.79-1.67,1.35-2.87,1.59-6.3,1.28-7.81-5.07-7.81-5.07,0,0-1.86-.06-2.37-2.31,1.47,2.36,2.94,1.66,2.94,1.66Z"/><g class="cls-23"><path class="cls-10" d="M206.8,97.23c.07,1.47,1.25,2.61,2.65,2.54,1.39-.07,2.47-1.33,2.4-2.8-.07-1.47-1.25-2.61-2.65-2.54-1.39,.07-2.47,1.33-2.4,2.8Z"/><path class="cls-13" d="M209.21,94.67c-1.27,.07-2.25,1.21-2.19,2.55,.06,1.34,1.14,2.38,2.41,2.31,1.27-.07,2.25-1.21,2.19-2.55-.06-1.34-1.14-2.38-2.41-2.31Z"/><path class="cls-8" d="M209.23,94.9c-1.15,.06-2.03,1.09-1.98,2.31,.06,1.21,1.03,2.15,2.18,2.09,1.15-.06,2.03-1.09,1.98-2.31-.06-1.21-1.03-2.15-2.18-2.09Z"/><path class="cls-6" d="M209.24,95.14c-1.03,.05-1.82,.98-1.77,2.06,.05,1.09,.92,1.92,1.95,1.87,1.03-.05,1.82-.98,1.77-2.06-.05-1.09-.92-1.92-1.95-1.87Z"/><path class="cls-17" d="M209.25,95.37c-.9,.05-1.6,.86-1.56,1.82,.04,.96,.81,1.69,1.72,1.65,.9-.05,1.6-.86,1.56-1.82-.04-.96-.81-1.69-1.72-1.65Z"/><path class="cls-11" d="M209.26,95.61c-.78,.04-1.38,.74-1.35,1.57,.04,.83,.7,1.46,1.48,1.42,.78-.04,1.38-.74,1.35-1.57-.04-.83-.7-1.46-1.48-1.42Z"/><path class="cls-16" d="M209.27,95.84c-.66,.03-1.17,.63-1.13,1.32,.03,.7,.59,1.23,1.25,1.2,.66-.03,1.17-.63,1.13-1.32-.03-.7-.59-1.23-1.25-1.2Z"/><path class="cls-15" d="M209.28,96.07c-.54,.03-.95,.51-.92,1.08,.03,.57,.48,1,1.02,.98,.54-.03,.95-.51,.92-1.08-.03-.57-.48-1-1.02-.98Z"/><path class="cls-9" d="M209.29,96.31c-.41,.02-.73,.39-.71,.83,.02,.44,.37,.78,.79,.75,.41-.02,.73-.39,.71-.83-.02-.44-.37-.78-.79-.75Z"/><path class="cls-12" d="M209.3,96.54c-.29,.02-.52,.28-.5,.59,.01,.31,.26,.55,.55,.53,.29-.02,.52-.28,.5-.59-.01-.31-.26-.55-.55-.53Z"/><path class="cls-14" d="M209.31,96.78c-.17,0-.3,.16-.29,.34,0,.18,.15,.32,.32,.31,.17,0,.3-.16,.29-.34,0-.18-.15-.32-.32-.31Z"/><path class="cls-7" d="M209.24,97.11s.04,.09,.09,.08c.05,0,.08-.04,.08-.09,0-.05-.04-.09-.09-.09-.05,0-.08,.04-.08,.09Z"/></g><g class="cls-23"><path class="cls-10" d="M199.75,97.45c.08,1.7,1.45,3.01,3.06,2.93s2.85-1.53,2.77-3.23c-.08-1.7-1.45-3.01-3.06-2.93-1.61,.08-2.85,1.53-2.77,3.23Z"/><path class="cls-13" d="M202.53,94.49c-1.47,.08-2.6,1.4-2.53,2.95,.07,1.55,1.32,2.75,2.79,2.67,1.47-.08,2.6-1.4,2.53-2.95-.07-1.55-1.32-2.75-2.79-2.67Z"/><path class="cls-8" d="M202.54,94.76c-1.33,.07-2.35,1.26-2.28,2.67,.07,1.4,1.19,2.48,2.52,2.42,1.33-.07,2.35-1.26,2.28-2.67-.07-1.4-1.19-2.48-2.52-2.42Z"/><path class="cls-6" d="M202.55,95.03c-1.19,.06-2.1,1.13-2.04,2.38,.06,1.25,1.07,2.22,2.25,2.16,1.19-.06,2.1-1.13,2.04-2.38-.06-1.25-1.07-2.22-2.25-2.16Z"/><path class="cls-17" d="M202.57,95.3c-1.04,.05-1.85,.99-1.8,2.1,.05,1.1,.94,1.96,1.98,1.9,1.04-.05,1.85-.99,1.8-2.1-.05-1.1-.94-1.96-1.98-1.9Z"/><path class="cls-11" d="M202.58,95.57c-.9,.05-1.6,.86-1.55,1.81,.04,.95,.81,1.69,1.71,1.64,.9-.05,1.6-.86,1.55-1.81-.04-.95-.81-1.69-1.71-1.64Z"/><path class="cls-16" d="M202.59,95.84c-.76,.04-1.35,.72-1.31,1.53,.04,.8,.68,1.43,1.45,1.39,.76-.04,1.35-.72,1.31-1.53-.04-.81-.69-1.43-1.45-1.39Z"/><path class="cls-15" d="M202.6,96.12c-.62,.03-1.1,.59-1.07,1.25,.03,.66,.56,1.16,1.18,1.13,.62-.03,1.1-.59,1.07-1.25-.03-.66-.56-1.16-1.18-1.13Z"/><path class="cls-9" d="M202.62,96.39c-.48,.02-.85,.46-.82,.96,.02,.51,.43,.9,.91,.87,.48-.02,.85-.46,.82-.96-.02-.51-.43-.9-.91-.87Z"/><path class="cls-12" d="M202.63,96.66c-.34,.02-.6,.32-.58,.68,.02,.36,.3,.63,.64,.61,.34-.02,.6-.32,.58-.68-.02-.36-.3-.63-.64-.61Z"/><path class="cls-14" d="M202.64,96.93c-.2,.01-.35,.19-.34,.39,0,.21,.18,.37,.37,.36,.2-.01,.35-.19,.34-.39,0-.21-.18-.37-.37-.36Z"/><path class="cls-7" d="M202.56,97.31c0,.06,.05,.1,.1,.1,.05,0,.1-.05,.09-.11,0-.06-.05-.1-.1-.1-.05,0-.1,.05-.09,.11Z"/></g><path class="cls-21" d="M205.49,86.82s-2.13,3.6-4.93,4.83c3.67-2.61,5.17-7.11,5.17-7.11,1.07,2.83,3.62,6.68,5.32,8.05-1.17-.56-3.21-2.01-5.56-5.76Z"/><g><path class="cls-25" d="M207.84,98.42s-1.63,.46-4.19-.19c0,0,.54,2.24,2.3,2.17,1.57-.06,1.89-1.98,1.89-1.98Z"/><path class="cls-4" d="M207.78,98.53s-1.7,.53-4.02-.18c0,0,.36,.94,2.21,.96,1.64,.02,1.81-.78,1.81-.78Z"/></g><path class="cls-29" d="M208.32,91.89s1.43-.52,2.93,.69c0,0,.03-.2-.28-.55-.3-.35-1.23-.89-2.23-.69,0,0-.62,.33-.42,.55Z"/><path class="cls-29" d="M204.98,92.11s-1.37-.68-2.98,.36c0,0,0-.2,.33-.51,.33-.31,1.31-.75,2.29-.44,0,0,.58,.4,.36,.59Z"/><path class="cls-60" d="M205.94,97.52c1.22,.65,1.95,.08,2.05-.55,.06-.41-.13-.79-.49-.98-.74-.38-1.19-1.68-1.19-1.69h0c-.03,.29,.17,1.39,1.1,2.07,.2,.15,.32,.3,.29,.5-.06,.35-.58,.84-1.75,.65h0Z"/><path class="cls-25" d="M209.27,93.1s.78,0,.89-.3c0,0,.1,.43-.37,.58,.15,.19,.25,.47,.25,.78,0,.59-.33,1.07-.75,1.07-.42,0-.76-.47-.76-1.06,0-.59,.33-1.07,.75-1.07Z"/><path class="cls-25" d="M203.3,93.14s.78,0,.89-.3c0,0,.1,.43-.37,.58,.15,.19,.25,.47,.25,.78,0,.59-.33,1.07-.75,1.07-.42,0-.76-.47-.76-1.06,0-.59,.33-1.07,.75-1.07Z"/></g></g><g><g><path class="cls-50" d="M196.82,196.32h-7.43s-.44-2.15,1.11-4.9l5,.1s1.44,2.16,1.31,4.81Z"/><rect class="cls-32" x="189.41" y="196.32" width="7.5" height="1.18"/><path class="cls-33" d="M190.31,194.02c0,.54,1.25,.97,2.8,.97s2.8-.44,2.8-.97-1.25-.97-2.8-.97-2.8,.44-2.8,.97Z"/></g><path class="cls-43" d="M194.55,192.78c0-.15-.12-.28-.26-.28h-2.26c-.14,0-.26,.12-.26,.28v.04c0,.15,.12,.28,.26,.28h2.26c.14,0,.26-.12,.26-.28v-.04Z"/><path class="cls-43" d="M194.55,191.75c0-.15-.12-.28-.26-.28h-2.26c-.14,0-.26,.12-.26,.28v.04c0,.15,.12,.28,.26,.28h2.26c.14,0,.26-.12,.26-.28v-.04Z"/></g><g><g><path class="cls-50" d="M205.61,190.8s-.58,3.17-.14,5.38h13.98s.48-3.26-5.6-3.25l-3.9-2.79-4.34,.66Z"/><polygon class="cls-32" points="205.53 197.43 219.56 197.34 219.56 196.18 205.53 196.18 205.53 197.43"/><path class="cls-33" d="M214.24,192.95s.18,2.23,5,2.12c0,0-.72-2.12-5-2.12Z"/><path class="cls-63" d="M209.99,196.18s-.14-3.74-4.58-3.77c0,0-.24,2.59,.11,3.77h4.47Z"/></g><g><path class="cls-43" d="M212.37,193.81c.06,0,.13-.02,.18-.07l1.2-1.18c.11-.1,.11-.28,.01-.39-.1-.11-.26-.12-.37-.02l-1.2,1.18c-.11,.1-.11,.28-.01,.39,.05,.06,.12,.09,.19,.09Z"/><path class="cls-43" d="M211.19,192.98c.06,0,.13-.02,.18-.07l1.21-1.18c.11-.1,.11-.28,.01-.39-.1-.11-.26-.12-.37-.02l-1.21,1.18c-.11,.1-.11,.28-.01,.39,.05,.06,.12,.09,.19,.09Z"/><path class="cls-43" d="M210.15,192.16c.06,0,.13-.02,.18-.07l1.2-1.18c.11-.1,.11-.28,.01-.39-.1-.11-.26-.12-.37-.02l-1.2,1.18c-.11,.1-.11,.28-.01,.39,.05,.06,.12,.09,.19,.09Z"/></g></g><g><path class="cls-48" d="M212.72,87.14s3.87,1.64-.69,2.08c0,0,1.86,2.31-4.56,2.38-6.42,.07-7.34-2.04-7.34-2.04,0,0-8.01-.15-3.25-2.43,4.76-2.27,15.84,.02,15.84,.02Z"/><path class="cls-42" d="M212.57,88.22s-7.05,1.4-15.5-.02c0,0-2.1-9.77,7.63-10.18,9.76-.41,7.87,10.19,7.87,10.19Z"/><path class="cls-5" d="M198.14,81.23c1.35,6.2,9.99,7.08,13.22,7.19-2.37,.33-7.93,.86-14.28-.21,0,0-.86-3.99,1.06-6.98Z"/><path class="cls-52" d="M204.71,89.24l-.88-.41s.62-8.44-1.62-10.44l.17-.67s4.75,.79,2.34,11.52Z"/><path class="cls-48" d="M204.71,89.24s.75-9.98-2.34-11.52c0,0,1.61-.65,4.54-.2,0,0,3.13,2.36,1.95,11.5,0,0-2.02,.38-4.15,.22Z"/></g><path class="cls-41" d="M200.1,129.35l-.79-3.51,4.14-1.47,.2-9.41s-2.3-7.47-4.61-9.13c0,0,.68-.71,2.3-.66,0,0,3.13,3.27,4.75,9.81l6.52-.33s-1.83-7.11-4.84-9.64c0,0,1.49,.1,2.3,.75,0,0,2.47,2.55,4.27,8.77l1.17,1.39-1.81,13.41s4.76,9.79,.11,35.6c0,0-2.05,21.35-1.96,26.28,0,0-3.42,2.15-6.89,.24,0,0,.67-12.98,1.12-25.77,.26-7.57,.18-15.34,.24-19.6h-.24s-5.06,20.46-9.7,45.15c0,0-2.53,2.28-6.54-.17,0,0,1.34-20.08,4.87-29.59,0,0-.73-21.97,5.38-32.15Z"/><path class="cls-49" d="M214.46,117.19l-9.24,.22s-1.32,6.46,4.93,6.47c4.98,0,4.31-6.69,4.31-6.69Z"/><path class="cls-1" d="M206.5,146.11s2.52-1.05,3.26-1.8c0,0-.9,4.4-3.26,6.8v-5Z"/><path class="cls-1" d="M212.39,188.19l-.28,3.28s-3.85,2.4-7.37,0l-.19-3.28s4,1.52,7.84,0Z"/><path class="cls-1" d="M197.26,188.75l-.59,2.73s-2.68,2.57-7.27-.19v-3.05s4.32,1.76,7.85,.51Z"/><g><path class="cls-5" d="M175.9,136.3l-1.31,3.93,43.98,16.38,1.31-3.93-43.98-16.38Zm40.89,16.11l1.34,.5-.78,2.36-1.34-.5,.78-2.36Zm-16.64-6.2l13.67,5.09-.78,2.36-13.67-5.09,.78-2.36Zm-18.57-6.92l13.52,5.04-.78,2.36-13.52-5.04,.78-2.36Zm-4.16-1.55l1.34,.5-.78,2.36-1.34-.5,.78-2.36Z"/><g><polygon class="cls-40" points="213.68 154.26 215.02 154.75 216.01 151.77 214.67 151.27 213.68 154.26"/><polygon class="cls-65" points="214.15 152.84 215.49 153.34 215.59 153.03 214.25 152.53 214.15 152.84"/><path class="cls-4" d="M214.59,151.82c-.06,.18,.14,.42,.44,.53,.3,.11,.6,.06,.66-.12,.06-.18-.14-.42-.44-.53-.3-.11-.6-.06-.66,.12Z"/></g><g><polygon class="cls-40" points="195.99 145.19 195.52 146.61 198.34 147.66 198.81 146.25 195.99 145.19"/><polygon class="cls-65" points="197.32 145.69 196.85 147.11 197.15 147.22 197.62 145.8 197.32 145.69"/><path class="cls-4" d="M198.29,146.16c-.17-.06-.4,.15-.5,.47-.11,.32-.06,.63,.12,.7,.17,.06,.4-.15,.5-.47,.11-.32,.06-.63-.12-.7Z"/></g><g><polygon class="cls-40" points="178.47 141.14 179.8 141.64 180.8 138.65 179.46 138.16 178.47 141.14"/><polygon class="cls-65" points="178.94 139.73 180.27 140.23 180.38 139.91 179.04 139.41 178.94 139.73"/><path class="cls-4" d="M179.37,138.71c-.06,.18,.14,.42,.44,.53,.3,.11,.6,.06,.66-.12,.06-.18-.14-.42-.44-.53-.3-.11-.6-.06-.66,.12Z"/></g><polygon class="cls-48" points="176.16 135.52 220.14 151.89 219.88 152.68 175.9 136.3 176.16 135.52"/></g><path class="cls-44" d="M194.87,140.96l.44,1.15s1.1,1.69,1.07,2.42c-.04,.93,.45,2.28,.45,2.28,0,0-.97,.57-1.31-1.06,0,0-.35,2.61-.89,2.65,0,0-.56,.09-.47-.94,0,0-.55,1.18-1.04-.1,0,0-.64,.27-.91-.27,0,0-.41,.3-.67-.31-.27-.62-.29-.68-.42-1.9,0,0,.19-2.49,1.17-3.32l2.57-.6Z"/><path class="cls-44" d="M191.77,125.72c2.34,.78,3.76,.68,4.57,.43,0,.03,0,.09,0,.09l-.98,15.94c-2.45,.79-3.06-.63-3.06-.63-1.17-6.74-.56-15.61-.56-15.61,0-.05,.02-.18,.03-.23Z"/><path class="cls-20" d="M191.75,125.79c.84-17.12,4.95-18.87,4.95-18.87,3.45,1.83-.15,18.35-.35,19.28-.81,.25-2.26,.37-4.6-.41Z"/></g></g></svg>