<?xml version="1.0" encoding="UTF-8"?><svg id="Layer_1" xmlns="http://www.w3.org/2000/svg" xmlns:xlink="http://www.w3.org/1999/xlink" viewBox="0 0 512 512"><defs><style>.cls-1{fill:#e0d4c4;}.cls-2{fill:#fff;}.cls-3{fill:#c9dae3;opacity:.3;}.cls-4{fill:#f15b57;}.cls-5{fill:#4d8ecc;}.cls-6{fill:#383782;}.cls-7{fill:#363089;}.cls-8{fill:#dbe5ec;}.cls-9{fill:#46499e;}.cls-10{fill:#4271b8;}.cls-11{fill:#8cb4c4;}.cls-12{fill:#f2f5f7;}.cls-13{fill:#d1bfa7;}.cls-14{fill:#4d3c88;}.cls-15{fill:#dce8ed;}.cls-16{fill:#3d3469;}.cls-17{fill:#a5b2c5;}.cls-18{fill:#faaf7e;}.cls-19{opacity:.52;}.cls-19,.cls-20{fill:#88cef2;}.cls-21{clip-path:url(#clippath);}.cls-22{fill:#febf53;}.cls-23{fill:#e6e6e5;}.cls-24{fill:none;}.cls-25{fill:#f08541;}.cls-26{fill:#67b7e6;}.cls-27{fill:#f4f0e9;}.cls-28{fill:#3d3c79;}.cls-29{fill:#00a99d;}.cls-30{fill:#f47621;}.cls-31{fill:#bac244;}.cls-32{fill:#51a9df;}.cls-33{fill:#e54741;}</style><clipPath id="clippath"><path class="cls-24" d="M220.5,235.33c0,14.6-9.42,21.14-22.12,21.14s-25.55-4.6-25.55-19.2,15.27-21.63,22.24-31.51c12.69,0,25.42,14.97,25.42,29.57Z"/></clipPath></defs><path class="cls-3" d="M419.2,433c0,3.31-2.36,6-5.27,6H31.95c-2.91,0-5.27-2.69-5.27-6h0c0-3.31,2.36-6,5.27-6H413.93c2.91,0,5.27,2.69,5.27,6h0Z"/><path class="cls-6" d="M373,407.76c0,10.62-7.43,19.24-16.59,19.24H213.59c-9.16,0-16.59-8.61-16.59-19.24V128.24c0-10.62,7.43-19.24,16.59-19.24h142.81c9.17,0,16.59,8.61,16.59,19.24V407.76Z"/><rect class="cls-17" x="273" y="121" width="26" height="5"/><path class="cls-26" d="M363,392.11V133.44c0-7.29-3.62-12.44-10.38-12.44h-35.5l-5.97,16h-27.14V404h69.77c5.58,0,9.23-5.47,9.23-10.48,0-.48,.07-.93,0-1.41Z"/><path class="cls-26" d="M207,392.11V133.44c0-7.29,3.62-12.44,10.38-12.44h35.5l5.97,16h27.15V404h-69.77c-5.58,0-9.23-5.47-9.23-10.48,0-.48-.07-.93,0-1.41Z"/><rect class="cls-20" x="221" y="380" width="51" height="8"/><rect class="cls-20" x="280" y="380" width="21" height="8"/><rect class="cls-20" x="313" y="380" width="31" height="8"/><path class="cls-16" d="M88.55,215.15l-5.36-7.93c-1.54,4.06-11.87,8.95-11.79,18.19,.05,5.09-.44,7.95-3.28,10.05-1.74,1.29-10.13,6.36-8.15,13.18,1.98,6.82,9.06,9.59,12.92,10.15,3.26,.47,12.66-1.65,8.99-9.89-1.9-4.27,.52-5.86,2.71-6.95,2.19-1.08-.56-6.69-4.25-19.1-1.31-4.39,5.6-8.16,8.2-7.7Z"/><g><rect class="cls-8" x="106" y="123" width="4" height="16"/><rect class="cls-8" x="100" y="128" width="15" height="5"/></g><path class="cls-12" d="M40.22,232H12.78c-6.49,0-11.78-5.71-11.78-12.72v-.56c0-7.01,5.28-12.72,11.78-12.72h27.44c6.49,0,11.78,5.71,11.78,12.72v.56c0,7.01-5.28,12.72-11.78,12.72Zm-27.6-22c-4.2,0-7.62,3.69-7.62,8.22v.57c0,4.53,3.42,8.22,7.62,8.22h27.76c4.2,0,7.62-3.69,7.62-8.22v-.57c0-4.53-3.42-8.22-7.62-8.22H12.62Z"/><path class="cls-12" d="M496.15,200h-34.29c-8.19,0-14.85-7.14-14.85-15.92v-.16c0-8.78,6.66-15.92,14.85-15.92h34.29c8.19,0,14.85,7.14,14.85,15.92v.16c0,8.78-6.66,15.92-14.85,15.92Zm-33.65-28c-5.79,0-10.5,5.12-10.5,11.42v.16c0,6.3,4.71,11.42,10.5,11.42h34c5.79,0,10.5-5.12,10.5-11.42v-.16c0-6.3-4.71-11.42-10.5-11.42h-34Z"/><rect class="cls-12" x="7" y="319" width="38" height="5"/><rect class="cls-12" x="452" y="317" width="30" height="5"/><rect class="cls-12" x="113" y="89" width="27" height="5"/><g><path class="cls-16" d="M96.22,226.93c7.3-3.11,11.71-11.42,11.83-19.83-.08-.41-.18-.77-.21-1.04-.8-5.78-6.69-8.87-9.6-9.06h-2c-7.29,0-12.27,4.65-13.22,12.2,0,0-.95,14.07,10.08,14.07,2.59,0,3.26,1.55,3.13,3.66Z"/><path class="cls-5" d="M72.66,308.78s-7.41,52.07-9.92,63.98c-2.9,13.74-10.63,54.24-10.63,54.24h9.21s17.39-35.57,22.43-48.38c6.61-16.81,14.41-50.93,14.41-50.93l-25.51-18.91Z"/><path class="cls-9" d="M90.95,236l16.64-.26s5.55,.55,10.13,5.96c6.26,7.39,22.55,24.45,24.68,26.74-3.42,6.49-7.09,9.17-8.5,12.22-4.25-1.53-16.85-9.71-16.85-9.71l1.5,48.37-46.16-7.75,.62-18.43s2.06-44.54,4.52-49.99c4.13-7.4,9.21-7.27,13.41-7.14Z"/><path class="cls-18" d="M90.96,216.94l-.7,19.06,11.31-.08-1.42-7.05s3.98-.28,5.71-3.76c1.17-2.34,1-9.35,1-9.35l-6.04-10.49s-1.11,11.15-9.87,11.67Z"/><polygon class="cls-5" points="119.47 330.82 72 334.45 72.13 308 118.05 307.9 118.77 318 119.47 330.82"/><polygon class="cls-10" points="96.75 331.94 94.62 341.89 105.85 429 117.19 429 116.24 423.61 120.13 338.44 119.16 317.43 107.82 322.4 96.75 331.94"/><polygon class="cls-16" points="51.93 430 63.59 430 62.89 424 59.76 424 52.28 424 51.93 430"/><polygon class="cls-16" points="105.08 430 119.58 430 116.61 423.47 110.69 425 104.76 425 105.08 430"/><path class="cls-9" d="M86.65,236.18s-6.91-.57-11.34,7.64c-2.56,4.74-15.99,22.94-17.54,32.09-1.89,11.2,5.67,17.32,5.67,17.32l15.23-.51s12.63-29.54,12.16-33.1c-.47-3.56-4.19-23.43-4.19-23.43Z"/><path class="cls-18" d="M74.08,278.58l-2.3,12.69,22.14-3.33,2.66,3.63,7.62-2.29s-.89-3.63-2.48-5.35c-3.13-3.38-7.17-2.7-7.17-2.7l-20.46-2.65Z"/><polygon class="cls-7" points="82.02 273.5 77.94 272.2 82.76 254.63 86.84 255.93 82.02 273.5"/><rect class="cls-7" x="116" y="259" width="4" height="8"/></g><path class="cls-32" d="M354,210.33c0,4.24-3.16,7.67-7.06,7.67h-37.87c-3.9,0-7.06-3.44-7.06-7.67v-71.65c0-4.24,3.16-7.67,7.06-7.67h37.87c3.9,0,7.06,3.44,7.06,7.67v71.65Z"/><path class="cls-32" d="M354,311.33c0,4.24-3.16,7.67-7.06,7.67h-37.87c-3.9,0-7.06-3.44-7.06-7.67v-71.65c0-4.24,3.16-7.67,7.06-7.67h37.87c3.9,0,7.06,3.44,7.06,7.67v71.65Z"/><g><path class="cls-22" d="M280.24,102.18l-35.42-38.18h99.84c14.67,0,27.21,6.41,27.21,38l-91.62,.18Z"/><path class="cls-27" d="M165.15,371l130.22-.38s28.63,6.98,28.63-31.25V98.31c0-37.81,24.93-34.31,24.93-34.31H201.05c-24.99,0-41.05,10.71-41.05,42.62v243.53s.62,6.63-.33,10.29c-2.41,9.2,5.49,10.56,5.49,10.56Z"/><path class="cls-25" d="M284.07,332.93c-3.8,31.52,17.08,38.07,17.08,38.07h-127.07c-24.17,0-37.22-4.4-37.22-38,0,0,121.48-.07,147.21-.07Z"/></g><g><path class="cls-15" d="M466,105.42c0,10.81-8.07,19.58-18.03,19.58h-32.95c-9.96,0-18.03-8.77-18.03-19.58v-12.84c0-10.81,8.07-19.58,18.03-19.58h32.95c9.96,0,18.03,8.77,18.03,19.58v12.84Z"/><polygon class="cls-15" points="402.32 111.5 391.57 124.87 416.37 123.98 402.32 111.5"/><path class="cls-11" d="M421.4,97.99c0,2.24-1.69,4.06-3.77,4.06s-3.77-1.82-3.77-4.06,1.69-4.06,3.77-4.06,3.77,1.82,3.77,4.06Z"/><path class="cls-11" d="M435.4,97.99c0,2.24-1.68,4.06-3.77,4.06s-3.77-1.82-3.77-4.06,1.69-4.06,3.77-4.06,3.77,1.82,3.77,4.06Z"/><path class="cls-11" d="M450.21,97.99c0,2.24-1.68,4.06-3.77,4.06s-3.77-1.82-3.77-4.06,1.69-4.06,3.77-4.06,3.77,1.82,3.77,4.06Z"/></g><g><path class="cls-15" d="M88,139.88c0-11.53-8.71-20.88-19.45-20.88H33.45c-10.74,0-19.45,9.35-19.45,20.88v13.23c0,11.53,8.71,20.88,19.45,20.88h35.09c10.74,0,19.45-9.35,19.45-20.88v-13.23Z"/><polygon class="cls-15" points="81.81 160.03 93.28 174.3 66.8 173.35 81.81 160.03"/><path class="cls-11" d="M61.23,145.47c0,2.15,1.62,3.9,3.62,3.9s3.62-1.75,3.62-3.9-1.62-3.9-3.62-3.9-3.62,1.75-3.62,3.9Z"/><path class="cls-11" d="M46.36,145.47c0,2.15,1.62,3.9,3.62,3.9s3.62-1.75,3.62-3.9-1.62-3.9-3.62-3.9-3.62,1.75-3.62,3.9Z"/><path class="cls-11" d="M30.66,145.47c0,2.15,1.62,3.9,3.62,3.9s3.62-1.75,3.62-3.9-1.62-3.9-3.62-3.9-3.62,1.75-3.62,3.9Z"/></g><g><rect class="cls-1" x="285" y="106" width="20" height="5"/><rect class="cls-1" x="277" y="123" width="27" height="5"/><rect class="cls-1" x="263" y="123" width="9" height="5"/><rect class="cls-1" x="264" y="138" width="18" height="5"/><rect class="cls-13" x="263" y="106" width="13" height="5"/><rect class="cls-1" x="287" y="138" width="17" height="5"/></g><g><rect class="cls-1" x="285" y="190" width="20" height="5"/><rect class="cls-1" x="277" y="207" width="27" height="5"/><rect class="cls-1" x="263" y="207" width="9" height="5"/><rect class="cls-1" x="264" y="222" width="18" height="5"/><rect class="cls-1" x="263" y="190" width="13" height="5"/><rect class="cls-1" x="287" y="222" width="17" height="5"/></g><g><rect class="cls-1" x="290" y="270" width="14" height="5"/><rect class="cls-1" x="277" y="286" width="27" height="5"/><rect class="cls-1" x="263" y="286" width="9" height="5"/><rect class="cls-1" x="264" y="302" width="18" height="5"/><rect class="cls-1" x="263" y="270" width="23" height="5"/><rect class="cls-1" x="287" y="302" width="17" height="5"/></g><g><path class="cls-10" d="M245,146.82c0,7.28-5.49,13.18-12.27,13.18h-43.46c-6.78,0-12.27-5.9-12.27-13.18v-43.64c0-7.28,5.49-13.18,12.27-13.18h43.46c6.78,0,12.27,5.9,12.27,13.18v43.64Z"/><g><polygon class="cls-30" points="218 118.71 221 109.6 221 104.89 218 105.92 218 118.71"/><path class="cls-30" d="M199.1,113.88c-.2-5.27,.82-14.73,10.81-14.73,0,0-.06-.02,3.22-.02,7.5,0,9.28,6.91,8.86,10.48-.51,4.41-9.17,12.93-9.29,13.84-2.05-1.3-1.92,9.54-1.98,10.37l-6.32-9.83c-2.76-.54-4.69-.88-5-3.3l-.3-6.81Z"/><path class="cls-18" d="M201.64,113.86l-.4,20.14,13.76-.07v-5.3s3.95-1.14,4.21-5.18c.16-2.59,.26-14.89,.26-14.89,0,0-6.99-.03-8.69,.18-.85,8.45-9.13,5.12-9.13,5.12Z"/><path class="cls-30" d="M200,118.98c0,1.87,2,4.6,4,4.6v-1.22c0-3.72,2.43-11.5,2.43-11.5,0-1.86-1.23-3.38-2.55-3.38h0c-2.64,0-3.87,1.51-3.87,3.38v8.12Z"/><path class="cls-18" d="M202.09,116.03c0,1.77,1.37,3.2,3.05,3.2s3.04-1.43,3.04-3.2-1.36-3.2-3.04-3.2-3.05,1.43-3.05,3.2Z"/></g><path class="cls-14" d="M234.51,159.28c-.78-3.86-3.2-16.02-4.17-17.94-2.98-7.54-10.21-8.43-13.63-8.34l-18.42,.07s-9.71-.09-11.55,8.64c-.54,2.56-2.77,11.33-3.71,15.66,0,0,1.18,2.29,8.5,2.16,10.86-.19,42.98-.26,42.98-.26Z"/><polygon class="cls-2" points="201.45 132.91 201.79 136.77 208.78 134.65 215.25 136.58 215.51 133 201.45 132.91"/></g><g><path class="cls-31" d="M245,228.69c0,7.35-5.49,13.31-12.27,13.31h-43.46c-6.78,0-12.27-5.96-12.27-13.31v-44.37c0-7.35,5.49-13.31,12.27-13.31h43.46c6.78,0,12.27,5.96,12.27,13.31v44.37Z"/><path class="cls-16" d="M227.97,207.83c-1.2-4.36-3.98-17.54-4.58-20.52-1.04-5.15-4.37-9.31-9.87-9.31h-2.06c-7.5,0-12.92,2.84-14.07,13.95,0,0-1.01,10.58-7.55,20.81-2.78,4.35-1.35,19.23,3.37,19.23l22.49-15.53c1.46,1.09,12.97,18.99,14.69,18.13,11.34-5.64,2.83-23.56-2.43-26.76Z"/><g class="cls-21"><path class="cls-16" d="M245,227.82c0,7.28-5.49,13.18-12.27,13.18h-43.46c-6.78,0-12.27-5.9-12.27-13.18v-43.64c0-7.28,5.49-13.18,12.27-13.18h43.46c6.78,0,12.27,5.9,12.27,13.18v43.64Z"/></g><path class="cls-18" d="M206.76,197.76l-1.83,18.24,10.07,.16,.09-5.92s4.08-.29,5.87-3.86c1.2-2.4,1.03-9.61,1.03-9.61l-6.09-8.38s-.46,8.63-9.15,9.37Z"/><path class="cls-4" d="M233.09,240c-.72-3.58-3.44-12.61-4.34-14.38-2.76-6.98-10.26-9.7-13.43-9.62l-11.53-.07s-10.04,.86-12.33,11.1c-.53,2.36-2.77,10.35-3.21,12.97h44.85Z"/><polygon class="cls-2" points="204.7 215.9 211.07 226.98 216.39 216 204.7 215.9"/></g><g><path class="cls-29" d="M245,265.18c0-7.28-5.49-13.18-12.27-13.18h-43.46c-6.78,0-12.27,5.9-12.27,13.18v43.64c0,7.28,5.49,13.18,12.27,13.18h43.46c6.78,0,12.27-5.9,12.27-13.18v-43.64Z"/><path class="cls-2" d="M185.8,321.73c.81-4.03,2.97-15.02,3.98-17.03,3.11-7.87,10.66-8.8,14.23-8.71l19.23,.07s10.14-.09,12.06,9.02c.56,2.67,2.17,12.18,3.63,15.31,0,0-2.21,1.6-5.92,1.6-15.29,0-47.22-.27-47.22-.27Z"/><g><polygon class="cls-30" points="202.12 281.89 199 271.78 199 266.56 202 267.7 202.12 281.89"/><path class="cls-28" d="M222.25,276.36c.21-5.42-.84-15.15-11.11-15.15,0,0,.06-.02-3.32-.02-7.7,0-9.53,7.1-9.11,10.77,.53,4.53,9.42,13.29,9.55,14.22,2.11-1.34,1.97,9.8,2.03,10.66l6.5-10.1c2.84-.56,4.82-.9,5.13-3.39l.31-7Z"/><path class="cls-18" d="M219.73,275.9l.41,20.71-9.24,3.58-4.9-3.65v-5.45s-4.06-1.17-4.32-5.33c-.17-2.66-.26-15.3-.26-15.3,0,0,7.19-.03,8.93,.19,.88,8.69,9.38,5.26,9.38,5.26Z"/><path class="cls-28" d="M222,283.04c0,1.85-2.67,4.55-4,4.55v-1.21c0-3.68-2.72-11.37-2.72-11.37,0-1.84,1.41-3.34,2.71-3.34h0c2.6,0,4.01,1.5,4.01,3.34v8.02Z"/><path class="cls-18" d="M219.17,278.57c0,1.82-1.4,3.29-3.13,3.29s-3.13-1.47-3.13-3.29,1.4-3.29,3.13-3.29,3.13,1.47,3.13,3.29Z"/></g></g><polygon class="cls-18" points="158.81 260.16 164 260.67 164 272.89 154.55 272.38 158.81 260.16"/><path class="cls-18" d="M140.04,266.01s23.62-3.31,22.67-1.78c-.94,1.53-1.89,7.13-1.89,7.13l-28.34,9.68,7.56-15.03Z"/><rect class="cls-19" x="324" y="149" width="20" height="8"/><rect class="cls-19" x="324" y="270" width="18" height="8"/><rect class="cls-19" x="324" y="170" width="14" height="8"/><rect class="cls-19" x="324" y="248" width="14" height="8"/><polygon class="cls-23" points="224.36 320.14 223.65 311.74 226.48 311.46 227.19 319.86 224.36 320.14"/><polygon class="cls-33" points="200.97 238.88 198.15 238.66 198.62 231.53 201.45 231.74 200.97 238.88"/></svg>