<?xml version="1.0" encoding="UTF-8"?><svg id="Layer_1" xmlns="http://www.w3.org/2000/svg" xmlns:xlink="http://www.w3.org/1999/xlink" viewBox="0 0 256 256"><defs><style>.cls-1{fill:#e0d4c4;}.cls-2{fill:#fff;}.cls-3{fill:#c9dae3;opacity:.3;}.cls-4{fill:#f15b57;}.cls-5{fill:#4d8ecc;}.cls-6{fill:#383782;}.cls-7{fill:#363089;}.cls-8{fill:#3dadb0;}.cls-9{fill:#e63f4e;}.cls-10{fill:#dbe5ec;}.cls-11{fill:#46499e;}.cls-12{fill:#4271b8;}.cls-13{fill:#8cb4c4;}.cls-14{fill:#f2f5f7;}.cls-15{fill:#d1bfa7;}.cls-16{fill:#4d3c88;}.cls-17{fill:#dce8ed;}.cls-18{fill:#3d3469;}.cls-19{fill:#a5b2c5;}.cls-20{fill:#faaf7e;}.cls-21{opacity:.52;}.cls-21,.cls-22{fill:#88cef2;}.cls-23{clip-path:url(#clippath);}.cls-24{fill:#06959d;}.cls-25{fill:#febf53;}.cls-26{fill:#e6e6e5;}.cls-27{fill:none;}.cls-28{fill:#f08541;}.cls-29{fill:#67b7e6;}.cls-30{fill:#f4f0e9;}.cls-31{fill:#3d3c79;}.cls-32{fill:#f4a21e;}.cls-33{fill:#5bc4bd;}.cls-34{fill:#00a99d;}.cls-35{fill:#f47621;}.cls-36{fill:#bac244;}.cls-37{fill:#51a9df;}.cls-38{fill:#e54741;}</style><clipPath id="clippath"><path class="cls-27" d="M110.17,107.43c0,6.05-4.73,8.76-11.11,8.76s-12.83-1.91-12.83-7.96,7.67-8.96,11.17-13.06c6.38,0,12.77,6.2,12.77,12.25Z"/></clipPath></defs><g><path class="cls-25" d="M188.4,127.2s27.71-22.68,18.12-42.28c-10.24-6.57-42.74,5.23-47.92,22.57-5.18,17.34,29.79,19.71,29.79,19.71Z"/><path class="cls-32" d="M204.33,101.61c-3.31,0-8.72-.15-12.6-.99l.51-1.85c5.55,1.2,15.3,1.08,15.4,1.08l-.36,1.71c-.13,0-1.27,.04-2.95,.04Z"/><path class="cls-32" d="M196.23,93.98c-.08-.19-2.11-4.45-.69-10.75l2.13-.16c-1.29,5.7,.51,10.15,.53,10.19l-1.98,.71Z"/><g><path class="cls-33" d="M201.48,121.79c-6.07,2.11-11.78,4.58-15.66,7.34l-1.33-1.48c2.45-1.75,5.57-3.37,9.02-4.86,.79-5.69,4.96-13.91,6.36-16.54-9.71,1-19.05,4.66-24.79,11.28-12.32,14.2,19.64,28.03,19.64,28.03,0,0,16.87-4.05,27.28-15.69-.48-.4-6.72-5.42-20.59-7.7l.08-.37Z"/><path class="cls-33" d="M195.84,121.81c12.73-5.09,28.77-8.43,33.49-9.36-6.81-4.82-17.23-7.07-27.49-6.39l.4,.17c-.05,.1-5.06,9.17-6.4,15.57Z"/><path class="cls-33" d="M223.29,128.33c3.08-3.86,5.43-8.49,6.32-13.98-3.85,.77-14.65,3.05-25.13,6.43,11.83,2.39,17.58,6.57,18.81,7.55Z"/><path class="cls-8" d="M195.61,123.15l-2.12-.22c0-.05,.02-.1,.02-.15-3.45,1.49-6.56,3.12-9.02,4.86l1.33,1.48c3.88-2.76,9.59-5.23,15.66-7.34l.31-1.5c.93,.15,1.83,.32,2.69,.49,10.47-3.38,21.28-5.67,25.13-6.43,.08-.51,.16-1.02,.21-1.55-.16-.12-.33-.23-.5-.35-4.71,.92-20.75,4.26-33.49,9.36-.1,.46-.18,.91-.23,1.34Z"/><path class="cls-8" d="M204.49,120.78c-1.01,.33-2.01,.66-3,1.01l-.08,.37c13.88,2.28,20.12,7.3,20.59,7.7,.44-.49,.87-1,1.29-1.53-1.23-.98-6.98-5.17-18.81-7.55Z"/><path class="cls-8" d="M201.48,121.79c.99-.34,2-.68,3-1.01-.86-.17-1.76-.34-2.69-.49l-.31,1.5Z"/><path class="cls-8" d="M195.84,121.81c1.34-6.4,6.34-15.47,6.4-15.57l-.4-.17c-.66,.04-1.31,.1-1.97,.17-1.4,2.63-5.57,10.85-6.36,16.54,.76-.33,1.54-.65,2.33-.97Z"/><path class="cls-8" d="M195.61,123.15c.05-.43,.13-.88,.23-1.34-.79,.32-1.57,.64-2.33,.97,0,.05-.02,.1-.02,.15l2.12,.22Z"/></g><path class="cls-32" d="M184.21,112.3l-1.96-.76c6.31-12.81,22.85-26.36,23.55-26.93l.86,.29,.44,1.27c-.17,.14-16.77,13.69-22.9,26.13Z"/><g><path class="cls-4" d="M211.78,161.89c-.19-5.52-1.89-10.35-4.6-14.43-2.35,.53-8.68,2.06-12.82,3.94,7.66,4.13,14.38,8.47,17.42,10.49Z"/><path class="cls-4" d="M187.44,150.05c-5.72-2.79-11.51-5.12-16.26-5.98l.43-1.86c6.08,1.1,13.62,4.4,20.63,8.05,3.99-2.09,10.65-3.78,13.74-4.5-8.68-11.19-25.34-15.9-38.17-12.16-13.31,8.41-9.81,20.55-5.19,23.5,4.91,7.25,18.19,11.35,30.94,10.93-1.48-2.71-4.65-9.19-6.46-17.93l.36-.06Z"/><path class="cls-4" d="M189.47,151.07c1.99,8.68,5.32,14.97,6.39,16.84,5.55-.43,10.88-1.75,15.27-4.08-2.97-1.98-12.01-7.87-21.66-12.77Z"/><path class="cls-9" d="M192.88,152.15l-1.15-1.6c.16-.09,.33-.18,.5-.27-7.01-3.66-14.55-6.95-20.63-8.05l-.43,1.86c4.75,.86,10.54,3.19,16.26,5.98l1.74-.29c.09,.44,.19,.87,.28,1.3,9.65,4.9,18.69,10.78,21.66,12.77,.22-.12,.45-.23,.67-.36,.01-.54,0-1.06-.03-1.59-3.04-2.02-9.76-6.36-17.42-10.49-.53,.24-1.03,.49-1.48,.75Z"/><path class="cls-9" d="M187.44,150.05l-.36,.06c1.81,8.74,4.98,15.23,6.46,17.93,.77-.03,1.55-.07,2.31-.13-1.07-1.87-4.4-8.16-6.39-16.84-.67-.34-1.35-.68-2.03-1.01Z"/><path class="cls-9" d="M187.44,150.05c.68,.33,1.36,.67,2.03,1.01-.1-.43-.19-.86-.28-1.3l-1.74,.29Z"/><path class="cls-9" d="M194.36,151.4c4.14-1.88,10.47-3.41,12.82-3.94-.38-.58-.79-1.14-1.21-1.69-3.09,.72-9.74,2.41-13.74,4.5,.72,.37,1.43,.75,2.13,1.13Z"/><path class="cls-9" d="M192.88,152.15c.45-.25,.95-.5,1.48-.75-.7-.38-1.41-.75-2.13-1.13-.17,.09-.34,.18-.5,.27l1.15,1.6Z"/></g></g><g><g><path class="cls-34" d="M73.83,93.7c.54-2.26,1.58-7.77,.47-13-5.3-1.35-10.92-1.51-16.37,.57,5.81,3.4,11.42,8.15,15.9,12.43Z"/><path class="cls-34" d="M69.59,92.53c-3.89-3.51-8.38-7.08-12.93-9.73-1.39,3.76-1.71,7.74-.95,11.71,6.4,.06,11.76-1.33,13.87-1.98Z"/><path class="cls-34" d="M76.59,81.36c1.13,6.86-.89,13.59-.98,13.89l-.24-.06c4.73,4.67,7.89,8.47,8.15,8.78l-1.72,1.12c-.07-.09-4.41-5.3-10.58-11.07-1.06,.37-7.19,2.37-15.04,2.38,2.54,9.06,10.79,17.86,25.04,23.52,16.35,6.5,19.42-23.28,19.42-23.28,0,0-10.75-11.01-24.04-15.29Z"/><path class="cls-24" d="M69.59,92.53c.61-.19,.97-.31,.98-.32l.81,1.76s-.08,.03-.16,.06c6.17,5.77,10.51,10.98,10.58,11.07l1.72-1.12c-.26-.31-3.42-4.11-8.15-8.78l-1.82-.44s.12-.4,.28-1.06c-4.48-4.28-10.09-9.03-15.9-12.43-.26,.1-.52,.2-.78,.31-.18,.4-.34,.81-.49,1.22,4.55,2.65,9.03,6.22,12.93,9.73Z"/><path class="cls-24" d="M69.59,92.53c-2.12,.64-7.48,2.03-13.87,1.98,.12,.64,.28,1.27,.46,1.91,7.85-.02,13.98-2.02,15.04-2.38-.53-.5-1.07-1-1.63-1.5Z"/><path class="cls-24" d="M70.57,92.22s-.37,.13-.98,.32c.56,.5,1.1,1,1.63,1.5,.08-.03,.14-.05,.16-.06l-.81-1.76Z"/><path class="cls-24" d="M73.83,93.7c.53,.51,1.04,1.01,1.54,1.5l.24,.06c.09-.3,2.11-7.03,.98-13.89-.76-.24-1.52-.47-2.29-.66,1.11,5.23,.07,10.74-.47,13Z"/><path class="cls-24" d="M73.56,94.76l1.82,.44c-.5-.49-1.01-.99-1.54-1.5-.16,.66-.27,1.04-.28,1.06Z"/></g><g><path class="cls-33" d="M72.01,115.41c6.31,.05,12.6,.59,17.59,1.19-.27-4.05-1.61-7.71-1.61-7.71l-5.73-2.6c-4.63-1.08-12-1.01-18.33,2.09,4.31,2.47,7.41,6.18,8.08,7.03Z"/><path class="cls-33" d="M71.25,117.46c-5.98-.03-11.85,.37-16.35,1.61,1.39,3.01,4.48,5.47,8.3,7.16,.84-.64,5.91-4.59,8.05-8.77Z"/><path class="cls-33" d="M61.9,109.51c-2.83,1.77-5.33,4.25-7.13,7.63,4.26-1.14,9.35-1.63,14.57-1.72-1.41-1.56-4.13-4.24-7.44-5.91Z"/><path class="cls-33" d="M65.33,127.08c7.41,2.59,16.61,2.5,21.52-1.55,1.99-1.64,2.7-4.24,2.79-6.89-4.56-.51-10.26-1-16-1.14-1.9,4.07-6.37,8.01-8.31,9.58Z"/><path class="cls-8" d="M99.77,118.07c-.43-.08-4.46-.8-10.16-1.48,.05,.67,.06,1.36,.04,2.04,5.66,.63,9.58,1.28,9.68,1.3l.44-1.86Z"/><path class="cls-8" d="M89.61,116.6c-5-.59-11.28-1.14-17.59-1.19,.07,.09,.13,.16,.14,.18l-1.77,1.07s-.39-.5-1.05-1.24c-5.22,.09-10.31,.58-14.57,1.72-.12,.22-.24,.44-.35,.67,.12,.43,.29,.85,.48,1.26,4.5-1.24,10.37-1.65,16.35-1.61,.12-.24,.24-.48,.34-.72l2.23,.38c-.05,.13-.12,.25-.18,.38,5.74,.14,11.44,.63,16,1.14,.02-.68,0-1.36-.04-2.04Z"/><path class="cls-8" d="M69.34,115.42c.89-.02,2.02,.16,2.92,.16-.67-.85-4.01-4.73-8.32-7.2-.69,.34-1.37,.71-2.03,1.13,3.31,1.67,6.02,4.35,7.44,5.91Z"/><path class="cls-8" d="M69.34,115.42c.66,.73,1.04,1.22,1.05,1.24l1.77-1.07s-.07-.09-.14-.18c-.89,0-1.79,0-2.68,.01Z"/><path class="cls-8" d="M73.64,117.49c-.8-.02-1.51-.22-2.31-.22-2.14,4.18-7.3,8.32-8.14,8.96,.69,.31,1.41,.59,2.14,.85,1.94-1.57,6.42-5.52,8.31-9.58Z"/><path class="cls-8" d="M73.83,117.11l-2.23-.38c-.1,.24-.22,.48-.34,.72,.8,0,1.6,.02,2.4,.04,.06-.13,.13-.25,.18-.38Z"/></g></g><path class="cls-3" d="M209.97,189.49c0,1.4-1.19,2.53-2.65,2.53H15.46c-1.46,0-2.65-1.13-2.65-2.53h0c0-1.4,1.18-2.53,2.65-2.53H207.33c1.46,0,2.65,1.13,2.65,2.53h0Z"/><path class="cls-6" d="M186.49,178.99c0,4.4-3.73,7.97-8.32,7.97H106.55c-4.6,0-8.32-3.57-8.32-7.97V63.21c0-4.4,3.73-7.97,8.32-7.97h71.62c4.6,0,8.32,3.57,8.32,7.97v115.77Z"/><rect class="cls-19" x="136.66" y="60.31" width="12.81" height="1.9"/><path class="cls-29" d="M181.71,172.3V65.01c0-2.89-1.74-4.92-4.98-4.92h-17.03l-2.86,6.33h-14.88v110.81h35.11c2.81,0,4.65-2.27,4.65-4.35,0-.2,.04-.39,0-.58Z"/><path class="cls-29" d="M103.42,172.3V65.01c0-2.89,1.74-4.92,4.98-4.92h17.03l2.86,6.33h14.88v110.81h-35.11c-2.81,0-4.65-2.27-4.65-4.35,0-.2-.04-.39,0-.58Z"/><rect class="cls-22" x="110.33" y="167.33" width="25.62" height="3.17"/><rect class="cls-22" x="140.22" y="167.33" width="10.68" height="3.17"/><rect class="cls-22" x="156.59" y="167.33" width="15.66" height="3.17"/><path class="cls-18" d="M43.89,99.07l-2.69-3.29c-.77,1.68-5.96,3.71-5.92,7.54,.03,2.11-.22,3.29-1.65,4.16-.87,.53-5.09,2.63-4.09,5.46,1,2.83,4.55,3.97,6.49,4.21,1.64,.2,6.36-.68,4.52-4.1-.95-1.77,.26-2.43,1.36-2.88,1.1-.45-.28-2.77-2.14-7.91-.66-1.82,2.81-3.38,4.12-3.19Z"/><g><rect class="cls-10" x="52.58" y="60.81" width="2.14" height="6.64"/><rect class="cls-10" x="49.92" y="63.18" width="7.46" height="1.9"/></g><path class="cls-14" d="M19.71,105.9H5.92c-3.26,0-5.92-2.36-5.92-5.27v-.23c0-2.9,2.65-5.27,5.92-5.27h13.79c3.26,0,5.92,2.36,5.92,5.27v.23c0,2.9-2.65,5.27-5.92,5.27Zm-13.79-8.86c-2.09,0-3.78,1.51-3.78,3.37v.23c0,1.86,1.7,3.37,3.78,3.37h13.79c2.09,0,3.78-1.51,3.78-3.37v-.23c0-1.86-1.7-3.37-3.78-3.37H5.92Z"/><path class="cls-14" d="M248.81,92.61h-17.16c-4.1,0-7.43-2.97-7.43-6.61v-.07c0-3.65,3.33-6.61,7.43-6.61h17.16c4.1,0,7.43,2.97,7.43,6.61v.07c0,3.65-3.33,6.61-7.43,6.61Zm-17.16-11.4c-2.92,0-5.3,2.12-5.3,4.72v.07c0,2.6,2.38,4.72,5.3,4.72h17.16c2.92,0,5.3-2.12,5.3-4.72v-.07c0-2.6-2.38-4.72-5.3-4.72h-17.16Z"/><rect class="cls-14" x="2.85" y="142" width="19.22" height="1.9"/><rect class="cls-14" x="226.35" y="141.36" width="14.95" height="1.9"/><rect class="cls-14" x="56.23" y="47.02" width="13.52" height="1.9"/><g><path class="cls-18" d="M47.74,104.12c3.67-1.29,5.88-4.73,5.94-8.22-.04-.17-.09-.32-.11-.43-.4-2.4-3.36-3.68-4.82-3.75h-1.01c-3.66,0-6.16,1.93-6.64,5.05,0,0-.48,5.83,5.06,5.83,1.3,0,1.64,.64,1.57,1.52Z"/><path class="cls-5" d="M35.91,137.95s-3.72,21.58-4.98,26.52c-1.46,5.69-5.34,22.48-5.34,22.48h4.63s8.74-14.74,11.27-20.05c3.32-6.97,7.24-21.11,7.24-21.11l-12.81-7.84Z"/><path class="cls-11" d="M45.09,107.66l8.36-.11s2.79,.23,5.09,2.47c3.14,3.06,11.33,10.13,12.4,11.08-1.72,2.69-3.56,3.8-4.27,5.07-2.14-.63-8.46-4.03-8.46-4.03l.75,20.04-23.19-3.21,.31-7.64s1.03-18.46,2.27-20.72c2.07-3.07,4.62-3.01,6.74-2.96Z"/><path class="cls-20" d="M45.1,99.76l-.35,7.9,5.68-.03-.71-2.92s2-.12,2.87-1.56c.59-.97,.5-3.88,.5-3.88l-3.03-4.35s-.56,4.62-4.96,4.84Z"/><polygon class="cls-5" points="59.57 147.21 35.73 148.71 35.79 137.75 58.86 137.71 59.22 141.89 59.57 147.21"/><polygon class="cls-12" points="48.01 147.36 46.94 151.49 52.58 187.59 58.27 187.59 57.8 185.35 59.75 150.06 59.26 141.35 53.57 143.41 48.01 147.36"/><polygon class="cls-18" points="25.44 188.22 31.4 188.22 31.05 185.69 29.44 185.69 25.62 185.69 25.44 188.22"/><polygon class="cls-18" points="52.49 188.22 59.16 188.22 57.8 185.74 55.07 186.32 52.34 186.32 52.49 188.22"/><path class="cls-11" d="M42.93,107.79s-3.47-.24-5.69,3.17c-1.28,1.97-8.03,9.51-8.81,13.3-.95,4.64,2.85,7.18,2.85,7.18l7.65-.21s6.35-12.24,6.11-13.72c-.24-1.48-2.1-9.71-2.1-9.71Z"/><path class="cls-20" d="M36.62,125.36l-1.15,5.26,11.12-1.38,1.33,1.5,3.83-.95s-.44-1.5-1.25-2.22c-1.57-1.4-3.6-1.12-3.6-1.12l-10.28-1.1Z"/><polygon class="cls-7" points="40.61 123.26 38.56 122.72 40.98 115.43 43.03 115.97 40.61 123.26"/><rect class="cls-7" x="57.65" y="117.3" width="2.14" height="3.17"/></g><path class="cls-37" d="M177.23,97.02c0,1.76-1.6,3.18-3.58,3.18h-19.18c-1.98,0-3.58-1.43-3.58-3.18v-29.73c0-1.76,1.6-3.18,3.58-3.18h19.18c1.98,0,3.58,1.43,3.58,3.18v29.73Z"/><path class="cls-37" d="M177.23,138.81c0,1.76-1.6,3.18-3.58,3.18h-19.18c-1.98,0-3.58-1.43-3.58-3.18v-29.73c0-1.76,1.6-3.18,3.58-3.18h19.18c1.98,0,3.58,1.43,3.58,3.18v29.73Z"/><g><path class="cls-25" d="M140.15,52.1l-17.82-15.85h50.23c7.38,0,13.69,2.66,13.69,15.77l-46.1,.07Z"/><path class="cls-30" d="M82.31,163.53l65.56-.16s14.41,2.89,14.41-12.96V50.47c0-15.68,12.55-14.22,12.55-14.22H100.39c-12.58,0-20.67,4.44-20.67,17.67v100.96s.31,2.75-.17,4.27c-1.21,3.82,2.76,4.38,2.76,4.38Z"/><path class="cls-28" d="M142.06,147.77c-1.91,13.05,8.57,15.76,8.57,15.76h-63.75c-12.12,0-18.67-1.82-18.67-15.73,0,0,60.95-.03,73.86-.03Z"/></g><g><path class="cls-17" d="M233.46,53.47c0,4.48-4.08,8.11-9.11,8.11h-16.65c-5.03,0-9.11-3.63-9.11-8.11v-5.32c0-4.48,4.08-8.11,9.11-8.11h16.65c5.03,0,9.11,3.63,9.11,8.11v5.32Z"/><polygon class="cls-17" points="201.49 56.12 196.1 61.66 208.55 61.29 201.49 56.12"/><path class="cls-13" d="M211.08,50.52c0,.93-.85,1.68-1.89,1.68s-1.89-.75-1.89-1.68,.85-1.68,1.89-1.68,1.89,.75,1.89,1.68Z"/><path class="cls-13" d="M218.11,50.52c0,.93-.84,1.68-1.89,1.68s-1.89-.75-1.89-1.68,.85-1.68,1.89-1.68,1.89,.75,1.89,1.68Z"/><path class="cls-13" d="M225.55,50.52c0,.93-.85,1.68-1.89,1.68s-1.89-.75-1.89-1.68,.85-1.68,1.89-1.68,1.89,.75,1.89,1.68Z"/></g><g><path class="cls-17" d="M43.42,67.7c0-4.78-4.36-8.66-9.73-8.66H16.14c-5.37,0-9.73,3.88-9.73,8.66v5.48c0,4.78,4.36,8.66,9.73,8.66h17.55c5.37,0,9.73-3.88,9.73-8.66v-5.48Z"/><polygon class="cls-17" points="40.5 76.23 46.27 82.14 32.96 81.75 40.5 76.23"/><path class="cls-13" d="M30.16,70.19c0,.89,.81,1.62,1.82,1.62s1.82-.72,1.82-1.62-.81-1.62-1.82-1.62-1.82,.72-1.82,1.62Z"/><path class="cls-13" d="M22.7,70.19c0,.89,.81,1.62,1.82,1.62s1.82-.72,1.82-1.62-.81-1.62-1.82-1.62-1.82,.72-1.82,1.62Z"/><path class="cls-13" d="M14.81,70.19c0,.89,.81,1.62,1.82,1.62s1.82-.72,1.82-1.62-.81-1.62-1.82-1.62-1.82,.72-1.82,1.62Z"/></g><g><rect class="cls-1" x="142.36" y="53.98" width="9.96" height="1.9"/><rect class="cls-1" x="138.8" y="60.95" width="13.52" height="1.9"/><rect class="cls-1" x="131.68" y="60.95" width="4.27" height="1.9"/><rect class="cls-1" x="131.68" y="67.28" width="9.25" height="1.9"/><rect class="cls-15" x="131.68" y="53.98" width="6.41" height="1.9"/><rect class="cls-1" x="143.78" y="67.28" width="8.54" height="1.9"/></g><g><rect class="cls-1" x="142.36" y="88.81" width="9.96" height="1.9"/><rect class="cls-1" x="138.8" y="95.77" width="13.52" height="1.9"/><rect class="cls-1" x="131.68" y="95.77" width="4.27" height="1.9"/><rect class="cls-1" x="131.68" y="102.11" width="9.25" height="1.9"/><rect class="cls-1" x="131.68" y="88.81" width="6.41" height="1.9"/><rect class="cls-1" x="143.78" y="102.11" width="8.54" height="1.9"/></g><g><rect class="cls-1" x="145.2" y="121.73" width="7.12" height="1.9"/><rect class="cls-1" x="138.8" y="128.7" width="13.52" height="1.9"/><rect class="cls-1" x="131.68" y="128.7" width="4.27" height="1.9"/><rect class="cls-1" x="131.68" y="135.03" width="9.25" height="1.9"/><rect class="cls-1" x="131.68" y="121.73" width="11.39" height="1.9"/><rect class="cls-1" x="143.78" y="135.03" width="8.54" height="1.9"/></g><g><path class="cls-12" d="M122.43,70.66c0,3.03-2.76,5.48-6.16,5.48h-21.84c-3.4,0-6.16-2.46-6.16-5.48v-18.16c0-3.03,2.76-5.48,6.16-5.48h21.84c3.4,0,6.16,2.46,6.16,5.48v18.16Z"/><g><polygon class="cls-35" points="109.16 59.11 110.57 55.33 110.57 53.38 109.21 53.81 109.16 59.11"/><path class="cls-35" d="M99.42,57.1c-.1-2.19,.41-6.11,5.43-6.11,0,0-.03,0,1.62,0,3.77,0,4.66,2.86,4.45,4.34-.26,1.83-4.61,5.36-4.67,5.73-1.03-.54-.96,3.95-.99,4.3l-3.18-4.07c-1.39-.23-2.36-.36-2.51-1.37l-.15-2.82Z"/><path class="cls-20" d="M100.85,56.92l-.2,8.35,6.91-.03v-2.2s1.99-.47,2.11-2.15c.08-1.07,.13-6.17,.13-6.17,0,0-3.51-.01-4.37,.08-.43,3.5-4.58,2.12-4.58,2.12Z"/><path class="cls-35" d="M99.79,59.25c0,.79,1.03,1.95,2.05,1.95v-.52c0-1.58,1.25-4.87,1.25-4.87,0-.79-.63-1.43-1.31-1.43h0c-1.35,0-1.99,.64-1.99,1.43v3.44Z"/><path class="cls-20" d="M100.92,58c0,.73,.69,1.33,1.53,1.33s1.53-.59,1.53-1.33-.69-1.33-1.53-1.33-1.53,.59-1.53,1.33Z"/></g><path class="cls-16" d="M117.21,76.09c-.39-1.6-1.61-6.64-2.1-7.43-1.5-3.12-5.13-3.49-6.85-3.46l-9.25,.03s-4.88-.04-5.8,3.58c-.27,1.06-1.39,4.7-1.86,6.49,0,0,.59,.95,4.27,.9,5.46-.08,21.59-.11,21.59-.11Z"/><polygon class="cls-2" points="100.6 65.15 100.77 66.75 104.28 65.88 107.53 66.68 107.66 65.19 100.6 65.15"/></g><g><path class="cls-36" d="M122.43,104.44c0,3.03-2.76,5.48-6.16,5.48h-21.84c-3.4,0-6.16-2.46-6.16-5.48v-18.28c0-3.03,2.76-5.48,6.16-5.48h21.84c3.4,0,6.16,2.46,6.16,5.48v18.28Z"/><path class="cls-18" d="M113.92,96.17c-.6-1.81-2-7.27-2.3-8.5-.52-2.14-2.19-3.86-4.96-3.86h-1.03c-3.77,0-6.49,1.18-7.07,5.78,0,0-.5,4.39-3.79,8.62-1.4,1.8-.68,7.97,1.69,7.97l11.3-6.44c.73,.45,6.52,7.87,7.38,7.51,5.69-2.34,1.42-9.76-1.22-11.09Z"/><g class="cls-23"><path class="cls-18" d="M122.43,104.22c0,3.03-2.76,5.48-6.16,5.48h-21.84c-3.4,0-6.16-2.45-6.16-5.48v-18.16c0-3.03,2.76-5.48,6.16-5.48h21.84c3.4,0,6.16,2.45,6.16,5.48v18.16Z"/></g><path class="cls-20" d="M103.47,91.98l-.92,7.56,5.06,.07,.05-2.45s2.05-.12,2.95-1.6c.6-1,.52-3.98,.52-3.98l-3.06-3.47s-.23,3.58-4.59,3.88Z"/><path class="cls-4" d="M116.46,109.52c-.36-1.48-1.72-5.21-2.17-5.94-1.38-2.88-5.14-4.01-6.72-3.97l-5.78-.03s-5.03,.36-6.18,4.59c-.27,.98-1.39,4.28-1.61,5.36h22.46Z"/><polygon class="cls-2" points="102.23 99.57 105.43 104.16 108.1 99.61 102.23 99.57"/></g><g><path class="cls-34" d="M122.43,119.62c0-3.03-2.76-5.48-6.16-5.48h-21.84c-3.4,0-6.16,2.45-6.16,5.48v18.16c0,3.03,2.76,5.48,6.16,5.48h21.84c3.4,0,6.16-2.45,6.16-5.48v-18.16Z"/><path class="cls-2" d="M92.95,143.26c.4-1.64,1.47-6.13,1.97-6.95,1.54-3.21,5.27-3.59,7.04-3.55l9.51,.03s5.01-.04,5.96,3.68c.28,1.09,1.07,4.97,1.79,6.25,0,0-1.09,.65-2.93,.65-7.56,0-23.35-.11-23.35-.11Z"/><g><polygon class="cls-35" points="101.03 126.5 99.58 122.62 99.58 120.61 100.98 121.05 101.03 126.5"/><path class="cls-31" d="M111.05,124.44c.1-2.25-.42-6.28-5.58-6.28,0,0,.03,0-1.67,0-3.87,0-4.79,2.94-4.58,4.46,.26,1.88,4.73,5.51,4.8,5.89,1.06-.55,.99,4.06,1.02,4.42l3.27-4.19c1.42-.23,2.42-.37,2.58-1.4l.16-2.9Z"/><path class="cls-20" d="M109.57,124.25l.21,8.58-4.64,1.48-2.46-1.51v-2.26s-2.04-.49-2.17-2.21c-.08-1.1-.13-6.34-.13-6.34,0,0,3.61-.01,4.49,.08,.44,3.6,4.71,2.18,4.71,2.18Z"/><path class="cls-31" d="M111.04,127.3c0,.81-1.42,2-2.14,2v-.53c0-1.62-1.45-5.01-1.45-5.01,0-.81,.75-1.47,1.45-1.47h0c1.39,0,2.14,.66,2.14,1.47v3.53Z"/><path class="cls-20" d="M109.5,125.36c0,.75-.7,1.36-1.57,1.36s-1.57-.61-1.57-1.36,.7-1.36,1.57-1.36,1.57,.61,1.57,1.36Z"/></g></g><polygon class="cls-20" points="79.25 117.72 81.85 117.94 81.85 123 77.11 122.79 79.25 117.72"/><path class="cls-20" d="M69.75,120.15s11.86-1.37,11.39-.74c-.47,.63-.95,2.96-.95,2.96l-14.24,4.01,3.8-6.23Z"/><rect class="cls-21" x="162.29" y="71.71" width="9.96" height="3.17"/><rect class="cls-21" x="162.29" y="121.73" width="9.25" height="3.17"/><rect class="cls-21" x="162.29" y="80.58" width="7.12" height="3.17"/><rect class="cls-21" x="162.29" y="112.87" width="7.12" height="3.17"/><polygon class="cls-26" points="112.11 142.58 111.75 139.1 113.17 138.99 113.53 142.47 112.11 142.58"/><polygon class="cls-38" points="100.36 108.9 98.94 108.81 99.18 105.86 100.6 105.95 100.36 108.9"/></svg>